<svg width="339" height="106" viewBox="0 0 339 106" fill="none" xmlns="http://www.w3.org/2000/svg">
<path d="M164.839 72.647H158.555V105.821H164.839V72.647Z" fill="#421F0C"/>
<path d="M291.763 74.6233L291.465 68.8848C291.43 68.212 291.129 67.5807 290.628 67.1298C290.126 66.6788 289.466 66.4451 288.792 66.4801L7.78288 81.0596C7.36097 81.0816 6.94026 80.9984 6.55866 80.8176C6.17706 80.6367 5.84658 80.364 5.59703 80.0239C5.34748 79.6838 5.1867 79.287 5.12919 78.8694C5.07167 78.4517 5.11925 78.0264 5.2676 77.6316L13.4208 55.892C13.5425 55.5651 13.596 55.2169 13.578 54.8687C13.5599 54.5205 13.4707 54.1797 13.3157 53.8673L2.95656 33.0881C2.76815 32.7108 2.67681 32.2926 2.6908 31.8713C2.70478 31.4499 2.82364 31.0387 3.03665 30.6746C3.24967 30.3105 3.55015 30.005 3.91098 29.7857C4.27182 29.5663 4.68167 29.44 5.10358 29.4182L286.095 14.8396C286.429 14.8222 286.756 14.7395 287.058 14.596C287.36 14.4525 287.63 14.2512 287.854 14.0034C288.078 13.7556 288.251 13.4662 288.363 13.1519C288.474 12.8375 288.523 12.5042 288.506 12.1711L288.208 6.43254C288.182 5.94593 288.296 5.46205 288.538 5.0386C288.78 4.61515 289.139 4.27002 289.572 4.04438C290.004 3.81873 290.493 3.7221 290.98 3.766C291.466 3.8099 291.929 3.99247 292.315 4.29196L333.652 36.3634C333.941 36.5877 334.178 36.8714 334.347 37.1952C334.516 37.519 334.613 37.8754 334.632 38.2401C334.651 38.6047 334.591 38.9692 334.456 39.3088C334.322 39.6484 334.115 39.9551 333.851 40.2081L296.055 76.3852C295.699 76.7211 295.253 76.9472 294.771 77.0365C294.289 77.1257 293.791 77.0741 293.338 76.8881C292.885 76.702 292.495 76.3894 292.216 75.9876C291.936 75.5859 291.779 75.1121 291.763 74.6233Z" fill="#F7CA02"/>
<path d="M286.71 6.51028C286.669 5.73668 286.851 4.96733 287.236 4.29453C287.62 3.62104 288.191 3.07251 288.879 2.71411C289.566 2.35577 290.342 2.20277 291.114 2.27247C291.886 2.34215 292.622 2.63165 293.234 3.10714L334.571 35.1783L334.572 35.1793C335.031 35.5355 335.407 35.9861 335.676 36.5008C335.945 37.0155 336.1 37.5821 336.13 38.1621C336.16 38.7422 336.065 39.3226 335.851 39.8625C335.637 40.4022 335.309 40.8894 334.889 41.2911L334.888 41.2922L297.092 77.469L297.084 77.4763C296.517 78.0103 295.809 78.3695 295.044 78.5111C294.278 78.6527 293.488 78.5717 292.769 78.2762C292.049 77.9806 291.428 77.4833 290.984 76.8442C290.545 76.2128 290.296 75.4691 290.266 74.7009L290.265 74.7009L289.967 68.9625C289.953 68.6881 289.83 68.4298 289.624 68.2449C289.419 68.0601 289.147 67.9636 288.869 67.978L7.86064 82.5575C7.19075 82.5924 6.5225 82.4606 5.91625 82.1734C5.30996 81.8861 4.78482 81.4521 4.38786 80.911C3.99091 80.37 3.73479 79.7389 3.64324 79.0741C3.55174 78.4096 3.62705 77.7329 3.8628 77.105L12.0159 55.3653C12.0653 55.2313 12.0876 55.0888 12.0802 54.9464C12.0728 54.8039 12.036 54.6645 11.9729 54.5363L1.61379 33.7571L1.61472 33.756C1.31549 33.1561 1.1694 32.4913 1.19163 31.8213C1.21395 31.1506 1.40336 30.4962 1.74215 29.9171C2.08095 29.3381 2.55861 28.8528 3.13176 28.5044C3.70496 28.1559 4.35591 27.9548 5.0259 27.9201L286.017 13.3415C286.155 13.3344 286.29 13.3006 286.414 13.2417C286.538 13.1827 286.65 13.0995 286.741 12.9978C286.833 12.8963 286.904 12.778 286.949 12.6497C286.995 12.5211 287.015 12.3845 287.008 12.2487L286.71 6.51028ZM290.004 12.0932C290.031 12.6234 289.953 13.1539 289.776 13.654C289.598 14.1543 289.323 14.6153 288.967 15.0093C288.611 15.403 288.182 15.7232 287.702 15.951C287.223 16.179 286.703 16.31 286.173 16.3375L5.18134 30.9161C5.00765 30.925 4.83888 30.9775 4.69049 31.0677C4.54212 31.1579 4.41817 31.2835 4.33098 31.4325C4.24399 31.5813 4.19582 31.7492 4.19008 31.9209C4.18438 32.0928 4.22108 32.2638 4.29801 32.4179L4.29904 32.4189L14.6581 53.1981L14.6593 53.201C14.9051 53.697 15.0475 54.238 15.0762 54.7909C15.1049 55.3438 15.0193 55.8967 14.826 56.4154L14.8252 56.4184L6.67212 78.1581L6.67119 78.1592C6.61057 78.3205 6.59183 78.4943 6.61528 78.6647C6.63875 78.8351 6.7039 78.9977 6.80602 79.1369C6.90815 79.2761 7.04446 79.3882 7.20135 79.4625C7.35812 79.5367 7.53153 79.5706 7.70521 79.5616L288.714 64.9821C289.784 64.9265 290.834 65.298 291.631 66.0149C292.428 66.732 292.907 67.7361 292.963 68.8071L293.262 74.5737C293.269 74.7732 293.333 74.9669 293.447 75.1313C293.562 75.2956 293.721 75.424 293.908 75.5005C294.094 75.577 294.299 75.5985 294.497 75.5618C294.696 75.5251 294.88 75.4317 295.026 75.2939L332.814 39.1243C332.922 39.0203 333.007 38.8944 333.062 38.7555C333.117 38.6162 333.142 38.4667 333.134 38.3175C333.126 38.1684 333.087 38.0222 333.017 37.8894C332.948 37.7568 332.85 37.6406 332.732 37.5483L332.731 37.5473L291.395 5.47708L291.394 5.47615C291.236 5.35334 291.045 5.27832 290.845 5.26017C290.645 5.24209 290.443 5.28166 290.265 5.37435C290.087 5.46719 289.939 5.60938 289.841 5.78265C289.742 5.95581 289.695 6.15341 289.706 6.35192L290.004 12.0932Z" fill="#421F0C"/>
<path d="M273.602 37.6608L273.671 38.9791L286.254 38.3262L286.185 37.008L273.602 37.6608ZM276 40.2601L276.063 41.4784L284.772 41.0266L284.709 39.8083L276 40.2601ZM276.864 37.9923C276.048 40.0173 274.48 41.841 272.7 43.0348C273.011 43.239 273.554 43.6714 273.767 43.9207C275.56 42.586 277.276 40.5343 278.18 38.2645L276.864 37.9923ZM284.429 39.8228L284.44 40.0425C284.364 43.9717 284.122 45.4863 283.762 45.8855C283.613 46.0935 283.454 46.1218 283.154 46.1373C282.875 46.1518 282.215 46.166 281.452 46.1455C281.669 46.4547 281.837 46.9867 281.856 47.3662C282.657 47.3647 283.415 47.3054 283.854 47.2626C284.331 47.1978 284.684 47.0593 284.986 46.7032C285.495 46.096 285.733 44.5015 285.818 40.3515C285.847 40.1297 285.847 39.7492 285.847 39.7492L284.429 39.8228ZM276.739 33.6529L283.17 33.3193L283.253 34.9171L276.822 35.2508L276.739 33.6529ZM276.601 30.9965L283.032 30.6628L283.114 32.2407L276.683 32.5744L276.601 30.9965ZM275.185 29.9485L275.522 36.4398L284.709 35.9631L284.372 29.4718L275.185 29.9485ZM267.849 34.0741L267.923 35.5122L273.855 35.2044L273.781 33.7664L267.849 34.0741ZM269.969 29.7785L270.606 42.062L272.024 41.9884L271.387 29.7049L269.969 29.7785ZM267.931 43.0018L268.588 44.4698C270.244 43.5628 272.365 42.3713 274.348 41.227L273.96 39.9253C271.738 41.1021 269.436 42.2829 267.931 43.0018ZM281.884 40.1751C281.293 42.6891 279.756 45.4925 277.944 46.8482C278.335 47.0482 278.812 47.3639 279.087 47.6501C280.833 46.1776 282.344 43.2554 282.971 40.6795L281.884 40.1751ZM278.771 40.3967C277.901 42.5447 275.923 44.9504 274.002 46.1315C274.373 46.3326 274.812 46.6903 275.068 46.9974C276.941 45.6586 278.915 43.173 279.821 40.9431L278.771 40.3967Z" fill="white"/>
<path d="M262.817 32.4325C262.78 31.7135 263.328 31.0843 264.067 31.0459C264.786 31.0086 265.416 31.5767 265.453 32.2957C265.492 33.0348 264.923 33.6451 264.204 33.6824C263.465 33.7207 262.855 33.1715 262.817 32.4325ZM261.898 32.4802C261.962 33.7185 263.013 34.6654 264.251 34.6011C265.49 34.5369 266.436 33.4864 266.372 32.2481C266.308 31.0097 265.257 30.0629 264.019 30.1272C262.781 30.1914 261.834 31.2419 261.898 32.4802ZM263.705 33.7282L262.446 33.0125C262.072 33.1321 261.694 33.1717 261.374 33.1883C260.475 33.2349 252.506 33.6484 251.368 33.7075C250.708 33.7417 249.905 33.7032 249.363 33.6713L249.455 35.4489C249.953 35.383 250.63 35.3079 251.428 35.2664C252.587 35.2063 260.496 34.796 261.655 34.7358C261.475 36.6678 260.701 39.5117 259.376 41.3828C257.809 43.607 255.66 45.4208 251.836 46.6005L253.272 48.028C256.867 46.6799 259.149 44.7191 260.844 42.268C262.336 40.1478 263.127 36.8624 263.457 34.7424C263.518 34.3588 263.58 34.0151 263.705 33.7282Z" fill="white"/>
<path d="M231.889 33.7571L230.794 35.0355C232.343 35.9365 234.931 37.9651 236.004 38.9509L237.176 37.6083C236.02 36.5668 233.336 34.6233 231.889 33.7571ZM230.866 47.2282L231.989 48.8121C235.293 48.0199 237.745 46.651 239.697 45.288C242.615 43.2341 244.791 40.3975 246.02 37.8504L244.973 36.1824C243.943 38.7192 241.679 41.8006 238.684 43.8986C236.848 45.1755 234.314 46.5286 230.866 47.2282Z" fill="white"/>
<path d="M215.196 37.026L213.5 37.5346C213.697 37.8448 213.877 38.236 214.042 38.7081C214.578 40.1623 217.133 48.1006 217.627 49.5169C217.792 49.989 217.918 50.5031 217.982 50.9604L219.676 50.4119C219.517 50.0596 219.306 49.4498 219.166 49.0765C218.676 47.7401 216.089 39.9437 215.543 38.3098C215.397 37.7967 215.255 37.3835 215.196 37.026ZM224.926 39.2849L223.871 38.6187C223.676 38.7289 223.382 38.8444 223.125 38.9177C222 39.2365 213.377 41.3261 212.386 41.5377C211.793 41.6886 211.297 41.7744 210.741 41.8634L211.219 43.3606C212.622 42.9874 221.872 40.625 222.742 40.4196C222.124 41.6332 220.703 43.5695 219.519 44.6923L220.955 45.3388C222.264 43.9291 224.175 41.0062 224.926 39.2849Z" fill="white"/>
<path d="M195.245 36.1588C195.538 37.185 198.239 47.9395 198.504 49.1874C198.674 49.7594 198.766 50.3755 198.901 51.0494L200.721 50.6145C200.491 50.0456 200.296 49.3748 200.127 48.8228C199.779 47.5191 197.013 36.6679 196.848 35.7953C196.745 35.36 196.635 34.7849 196.577 34.4275L194.815 34.8193C194.976 35.2315 195.119 35.6647 195.245 36.1588ZM189.762 39.3472L190.214 41.1061C190.786 40.9362 191.26 40.8115 191.794 40.6837C193.537 40.2929 200.291 38.861 202.332 38.4347C202.867 38.3268 203.461 38.1958 203.76 38.1603L203.353 36.4992C203.019 36.6166 202.506 36.7634 201.932 36.8933C200.054 37.3713 193.22 38.8273 191.433 39.1203C190.797 39.2134 190.26 39.2813 189.762 39.3472ZM190.001 45.1025L190.452 46.8415C190.885 46.6989 191.438 46.55 192.21 46.3698C194.208 45.9056 201.357 44.3531 203.993 43.8158C204.726 43.6576 205.359 43.5046 205.776 43.4429L205.35 41.7828C204.936 41.9244 204.364 42.0943 203.613 42.2735C201.239 42.8372 193.872 44.4411 191.749 44.8316C191.234 44.9384 190.479 45.0577 190.001 45.1025Z" fill="white"/>
<path d="M178.619 50.7601L179.723 51.584C179.878 51.4759 180.068 51.2857 180.399 51.1083C182.656 49.8297 185.307 47.6494 186.923 45.2224L185.893 43.894C184.492 46.2297 182.13 48.1748 180.316 49.11C180.285 48.5108 179.783 38.8438 179.719 37.6055C179.679 36.8465 179.729 36.2631 179.741 36.1023L177.903 36.1976C177.912 36.3574 178.041 36.9115 178.08 37.6705C178.145 38.9288 178.653 48.7156 178.701 49.6344C178.721 50.0338 178.683 50.4564 178.619 50.7601ZM169.467 51.1548L171.037 52.0747C172.642 50.5896 173.82 48.5859 174.308 46.4176C174.744 44.3924 174.581 40.095 174.466 37.878C174.436 37.2988 174.484 36.6755 174.492 36.4547L172.655 36.5501C172.776 36.9643 172.839 37.4017 172.869 37.9809C172.985 40.2179 173.191 44.1925 172.688 46.0611C172.189 48.0296 171.103 49.8684 169.467 51.1548Z" fill="white"/>
<path d="M155.277 40.1349L153.581 40.6435C153.777 40.9537 153.958 41.3449 154.123 41.817C154.659 43.2711 157.213 51.2094 157.707 52.6257C157.872 53.0978 157.999 53.612 158.063 54.0693L159.757 53.5208C159.598 53.1685 159.386 52.5587 159.247 52.1854C158.757 50.849 156.169 43.0526 155.624 41.4186C155.477 40.9056 155.336 40.4923 155.277 40.1349ZM165.007 42.3938L163.951 41.7276C163.757 41.8378 163.462 41.9532 163.206 42.0266C162.081 42.3453 153.457 44.435 152.467 44.6466C151.874 44.7975 151.378 44.8833 150.822 44.9722L151.3 46.4695C152.702 46.0963 161.952 43.7339 162.823 43.5285C162.205 44.7421 160.783 46.6784 159.6 47.8012L161.035 48.4477C162.344 47.038 164.255 44.1151 165.007 42.3938Z" fill="white"/>
<path d="M133.445 38.1436L132.636 39.5474C133.829 40.1464 136.081 41.4715 137.078 42.1608L137.946 40.7539C137.034 40.1604 134.657 38.7416 133.445 38.1436ZM131.19 52.5799L132.212 54.149C134.03 53.6742 136.739 52.6124 138.695 51.3293C141.793 49.286 144.416 46.5665 146.015 43.7999L144.95 42.1929C143.498 45.0921 140.997 47.8453 137.78 49.9148C135.802 51.159 133.367 52.0864 131.19 52.5799ZM130.682 42.793L129.853 44.1978C131.105 44.7738 133.334 46.04 134.35 46.7082L135.196 45.2625C134.305 44.6879 131.893 43.371 130.682 42.793Z" fill="white"/>
<path d="M110.426 49.5714L111.281 51.009C113.895 50.0523 116.603 48.59 118.229 47.5043C120.241 46.1382 122.228 44.2928 123.322 42.9944L122.022 41.8602C121.048 43.1724 119.297 44.9255 117.479 46.1614C115.893 47.245 113.029 48.7955 110.426 49.5714ZM117.346 47.0895L117.713 54.16C117.744 54.7592 117.728 55.6012 117.704 55.9028L119.561 55.8065C119.466 55.511 119.402 54.6732 119.371 54.074L118.982 46.5841L117.346 47.0895Z" fill="white"/>
<path d="M105.201 41.6917L103.942 40.9759C103.567 41.0755 103.168 41.1162 102.869 41.1318C101.97 41.1784 94.0007 41.5919 92.8622 41.6509C92.2031 41.6851 91.4011 41.6667 90.8577 41.6147L90.9499 43.3924C91.4482 43.3465 92.1252 43.2713 92.9241 43.2298C94.0826 43.1697 101.992 42.7594 103.15 42.6993C102.97 44.6312 102.196 47.4551 100.872 49.3463C99.3048 51.5704 97.1559 53.3842 93.3309 54.544L94.7668 55.9715C98.3628 54.6434 100.643 52.6626 102.34 50.2314C103.831 48.0913 104.623 44.8259 104.953 42.7059C105.012 42.3023 105.076 41.9786 105.201 41.6917Z" fill="white"/>
<path d="M81.0711 40.5805L79.2335 40.6759C79.3352 41.0912 79.4 41.5684 79.4793 42.3254C79.6942 44.5372 80.1441 51.6635 80.2923 54.5196C80.3202 55.0589 80.1539 55.3279 79.5947 55.3569C78.8357 55.3963 77.7131 55.3744 76.7461 55.2644L76.9719 56.9149C77.9737 56.923 79.1552 56.9218 80.1738 56.8689C81.3722 56.8067 81.9823 56.2143 81.9074 55.1568C81.6937 51.4228 81.1922 44.4595 81.0572 42.2435C81.0093 41.7053 81.0192 41.124 81.0711 40.5805ZM70.5268 44.6323L70.6149 46.33C71.252 46.2569 71.8092 46.188 72.4883 46.1527C73.387 46.1061 83.5733 45.5776 84.4522 45.532C84.9515 45.5061 85.6327 45.5108 86.113 45.5059L86.025 43.8082C85.6286 43.8888 84.8528 43.9892 84.3335 44.0161C83.3148 44.069 73.4281 44.5819 72.3696 44.6368C71.7704 44.6679 71.1092 44.6622 70.5268 44.6323ZM70.2917 53.9971L71.4976 55.2363C75.2267 53 78.7573 49.2521 80.1519 46.7965L80.0625 45.4594L79.2636 45.5008C77.912 48.0142 74.3983 51.7012 70.2917 53.9971Z" fill="white"/>
<path d="M275.185 29.9487L275.522 36.44L284.71 35.9633L284.373 29.472L275.185 29.9487ZM273.67 38.9798L276.474 38.8343C275.6 40.5181 274.229 42.0098 272.7 43.0355C273.011 43.2397 273.554 43.6716 273.767 43.9208C274.656 43.259 275.527 42.4211 276.288 41.4676L278.314 41.3625C277.315 43.2298 275.638 45.1261 274.001 46.1324C274.372 46.3334 274.812 46.6911 275.068 46.9982C276.844 45.7288 278.709 43.4279 279.67 41.2921L281.597 41.1921C280.877 43.411 279.515 45.674 277.944 46.849C278.335 47.0489 278.812 47.3642 279.087 47.6502C280.733 46.2624 282.17 43.5868 282.854 41.1269L284.414 41.046C284.318 44.2355 284.09 45.5227 283.762 45.8861C283.613 46.094 283.454 46.1221 283.155 46.1376C282.875 46.1521 282.215 46.1663 281.452 46.1458C281.669 46.455 281.836 46.9872 281.856 47.3667C282.657 47.3652 283.415 47.3059 283.853 47.2631C284.331 47.1983 284.684 47.0598 284.986 46.7036C285.495 46.0965 285.733 44.502 285.818 40.3522C285.847 40.1304 285.847 39.7493 285.847 39.7493L277.188 40.1985C277.48 39.734 277.743 39.2517 277.968 38.7568L286.254 38.3269L286.186 37.0084L273.602 37.6612L273.67 38.9798ZM283.253 34.9173L276.822 35.2509L276.739 33.6535L283.17 33.3198L283.253 34.9173ZM283.114 32.2412L276.683 32.5748L276.601 30.9969L283.032 30.6632L283.114 32.2412ZM269.969 29.7793L270.186 33.9534L267.849 34.0746L267.923 35.5131L270.26 35.3919L270.586 41.6803C269.58 42.1939 268.662 42.6531 267.932 43.0022L268.589 44.4702C270.244 43.5632 272.365 42.3712 274.348 41.227L273.96 39.926C273.297 40.2773 272.625 40.6274 271.971 40.967L271.678 35.3183L273.856 35.2053L273.781 33.7668L271.604 33.8798L271.387 29.7057L269.969 29.7793ZM273.024 32.3041L273.704 32.2688C273.737 32.2671 273.77 32.2681 273.803 32.2686L273.687 30.0265C273.644 29.1992 274.28 28.4937 275.107 28.4508L284.295 27.9741C285.122 27.9313 285.828 28.5672 285.871 29.3943L286.188 35.5101C286.98 35.5108 287.642 36.1303 287.684 36.9306L287.752 38.2492C287.775 38.6958 287.599 39.1056 287.303 39.3961C287.319 39.4622 287.332 39.5293 287.339 39.5976L287.347 39.7585C287.347 39.7626 287.347 39.7684 287.347 39.7751C287.347 39.7888 287.346 39.8079 287.346 39.8309C287.346 39.8766 287.345 39.94 287.343 40.012C287.34 40.1127 287.331 40.2661 287.317 40.4192C287.274 42.4838 287.193 43.9802 287.048 45.0565C286.912 46.0666 286.69 47.0066 286.135 47.6679L286.131 47.674C285.51 48.4058 284.758 48.6544 284.056 48.7497C284.037 48.7523 284.018 48.7538 283.999 48.7556C283.534 48.8009 282.725 48.865 281.859 48.8666C281.359 48.8674 280.914 48.6234 280.64 48.2453C280.448 48.4411 280.255 48.6277 280.054 48.797C279.45 49.3064 278.554 49.2597 278.006 48.69C277.891 48.5696 277.573 48.344 277.26 48.1841C277.016 48.0588 276.817 47.8699 276.675 47.6443C276.43 47.8501 276.185 48.043 275.94 48.2183C275.302 48.6747 274.419 48.5613 273.916 47.9586C273.786 47.8028 273.497 47.5645 273.286 47.4505C272.816 47.1952 272.517 46.7083 272.502 46.173C272.492 45.7848 272.633 45.4148 272.885 45.1332C272.792 45.0656 272.705 44.9872 272.627 44.8963C272.625 44.8939 272.599 44.8658 272.539 44.8109C272.479 44.7556 272.403 44.6906 272.319 44.6218C272.175 44.5036 272.032 44.3981 271.931 44.328C270.995 44.8541 270.1 45.3528 269.309 45.7862C268.942 45.9873 268.507 46.0258 268.11 45.8924C267.713 45.7589 267.39 45.4651 267.219 45.083L266.562 43.615C266.23 42.8723 266.55 42.0002 267.284 41.6492C267.787 41.4089 268.383 41.1125 269.038 40.7828L268.84 36.9676L268.001 37.0111C267.174 37.054 266.469 36.4179 266.425 35.5908L266.351 34.1523C266.308 33.325 266.944 32.6196 267.771 32.5766L268.61 32.5331L268.471 29.857C268.428 29.0298 269.064 28.3243 269.891 28.2813L271.309 28.2078C272.137 28.1648 272.842 28.8007 272.885 29.628L273.024 32.3041Z" fill="#421F0C"/>
<path d="M249.451 32.1746C249.994 32.2065 250.722 32.2396 251.289 32.2102L251.367 33.7082L250.852 33.7212C250.323 33.7234 249.769 33.6954 249.363 33.6714L249.455 35.4493C249.828 35.3999 250.302 35.3451 250.853 35.3034L251.428 35.2667L261.655 34.7361C261.475 36.6681 260.701 39.5125 259.376 41.3836C257.809 43.6077 255.66 45.4209 251.837 46.6006L253.272 48.0282C256.867 46.6801 259.149 44.7198 260.844 42.2687C262.336 40.1487 263.127 36.8633 263.458 34.7433C263.47 34.6638 263.482 34.5855 263.495 34.5096C263.734 34.5804 263.988 34.6151 264.251 34.6014C265.412 34.5412 266.317 33.6141 266.372 32.4779L266.372 32.2481C266.308 31.01 265.257 30.0637 264.019 30.128C262.781 30.1922 261.834 31.2421 261.898 32.4803C261.909 32.7023 261.953 32.9151 262.024 33.1143C261.794 33.1562 261.573 33.1787 261.374 33.189L251.367 33.7082L251.289 32.2102L260.448 31.7351C260.734 30.0451 262.157 28.7226 263.941 28.63C266.007 28.5228 267.763 30.1049 267.87 32.1704C267.97 34.0939 266.604 35.748 264.748 36.0532C264.328 38.1965 263.514 41.0724 262.076 43.1211L262.077 43.122C260.211 45.8203 257.684 47.9753 253.798 49.4325C253.249 49.6384 252.63 49.5058 252.214 49.0922L250.779 47.6647C250.405 47.2934 250.254 46.7534 250.379 46.2421C250.505 45.7308 250.89 45.3229 251.394 45.1676C254.901 44.0855 256.775 42.4714 258.15 40.5193L258.152 40.5162C258.944 39.3979 259.534 37.7968 259.872 36.3307L251.506 36.7647C250.757 36.8036 250.121 36.8741 249.652 36.9362C249.237 36.9911 248.818 36.8707 248.496 36.6031C248.174 36.3354 247.978 35.945 247.957 35.527L247.865 33.7491C247.843 33.3232 248.003 32.9081 248.306 32.6075C248.609 32.3069 249.025 32.1495 249.451 32.1746ZM264.067 31.0467C264.786 31.0094 265.416 31.5769 265.453 32.2958L265.454 32.4327C265.42 33.109 264.878 33.6478 264.203 33.6828C263.464 33.7211 262.855 33.1716 262.816 32.4326C262.779 31.7138 263.328 31.085 264.067 31.0467ZM264.126 32.1848C264.101 32.186 264.078 32.1924 264.056 32.203L264.312 32.3482C264.308 32.3168 264.292 32.2711 264.251 32.235C264.208 32.1961 264.157 32.1831 264.126 32.1848Z" fill="#421F0C"/>
<path d="M244.842 34.6882C245.402 34.6391 245.944 34.9076 246.243 35.3841L247.291 37.0527C247.565 37.4899 247.595 38.0378 247.371 38.5027C246.042 41.2558 243.708 44.2995 240.561 46.5147L240.556 46.5179C238.498 47.9554 235.874 49.4233 232.339 50.2709C231.744 50.4138 231.12 50.1796 230.766 49.6798L229.643 48.0962C229.35 47.6824 229.285 47.1482 229.472 46.6764C229.658 46.2046 230.071 45.8589 230.568 45.758C233.776 45.1071 236.123 43.8526 237.828 42.6668C240.579 40.7381 242.66 37.8912 243.583 35.6179C243.794 35.0964 244.281 34.7374 244.842 34.6882ZM244.973 36.1824C243.943 38.7192 241.679 41.8005 238.684 43.8985C236.848 45.1753 234.315 46.5283 230.866 47.2279L231.99 48.8125C234.88 48.1193 237.119 46.9838 238.941 45.7979L239.698 45.2883C242.433 43.3627 244.516 40.749 245.779 38.331L246.021 37.8501L244.973 36.1824ZM230.843 32.6823C231.326 32.2117 232.072 32.1178 232.66 32.4697C234.176 33.3773 236.941 35.377 238.18 36.4937C238.789 37.0422 238.845 37.9775 238.306 38.5946L237.134 39.9374C236.868 40.2419 236.49 40.4261 236.087 40.4484C235.683 40.4706 235.287 40.3289 234.99 40.0555C233.971 39.1193 231.469 37.1637 230.04 36.3323C229.655 36.1085 229.389 35.7253 229.315 35.2864C229.241 34.8476 229.366 34.3982 229.655 34.0601L230.75 32.781L230.843 32.6823ZM230.794 35.0356C232.343 35.9365 234.931 37.9648 236.004 38.9506L237.176 37.6088C236.021 36.5673 233.336 34.6237 231.889 33.7574L230.794 35.0356Z" fill="#421F0C"/>
<path d="M214.765 35.5895C215.178 35.4656 215.625 35.5261 215.991 35.7547C216.357 35.9833 216.606 36.3584 216.676 36.7841C216.715 37.0202 216.799 37.2537 216.97 37.8474C217.046 38.0738 217.158 38.409 217.295 38.8231C219.715 38.2347 222.164 37.6308 222.714 37.4751C222.893 37.4237 223.069 37.3489 223.131 37.3136L223.316 37.2248C223.758 37.0492 224.263 37.0921 224.671 37.3501L225.727 38.017C226.354 38.4125 226.597 39.2061 226.301 39.8853C225.482 41.7612 223.478 44.8269 222.055 46.3601C221.617 46.8318 220.926 46.9715 220.339 46.7072L219.86 46.4915C220.187 47.4557 220.447 48.2107 220.571 48.5512L220.82 49.2306C220.901 49.4499 220.978 49.6504 221.044 49.7969C221.219 50.1858 221.219 50.6304 221.047 51.0201C220.874 51.4099 220.543 51.7075 220.138 51.8388L218.444 52.3882C218.022 52.5248 217.562 52.4668 217.186 52.2315C216.811 51.9962 216.558 51.6072 216.496 51.1682C216.447 50.8171 216.346 50.3989 216.211 50.0115C215.923 49.1866 215.077 46.5881 214.269 44.1208C213.004 44.4458 211.997 44.7063 211.605 44.8106C210.832 45.0161 210.034 44.5792 209.79 43.8173L209.313 42.3205C209.18 41.9041 209.234 41.4499 209.463 41.0776C209.692 40.7054 210.072 40.4513 210.504 40.3822C211.047 40.2953 211.491 40.2185 212.017 40.0846L212.073 40.071C212.206 40.0425 212.482 39.975 212.864 39.8852C212.769 39.6066 212.691 39.3821 212.634 39.2273C212.631 39.219 212.628 39.2106 212.625 39.2023C212.486 38.8024 212.351 38.5226 212.233 38.3367C211.982 37.9403 211.931 37.4495 212.095 37.01C212.259 36.5705 212.62 36.2328 213.069 36.098L214.765 35.5895ZM213.501 37.5346C213.697 37.8448 213.877 38.2363 214.042 38.7083C214.183 39.091 214.463 39.9229 214.809 40.9665C213.605 41.2553 212.674 41.4766 212.387 41.5381C211.794 41.689 211.297 41.7751 210.741 41.864L211.22 43.3608C211.746 43.2207 213.377 42.8012 215.255 42.3202C216.183 45.1388 217.316 48.6245 217.627 49.5175C217.792 49.9895 217.918 50.5039 217.982 50.9611L219.676 50.4126C219.518 50.0603 219.306 49.4501 219.166 49.0769C218.855 48.2271 217.696 44.7649 216.753 41.9364C219.492 41.2366 222.281 40.5286 222.742 40.42C222.124 41.6336 220.703 43.5695 219.519 44.6923L220.954 45.3395C222.263 43.9298 224.174 41.0061 224.926 39.2848L223.871 38.6189C223.676 38.7291 223.381 38.8443 223.125 38.9177C222.452 39.1082 219.106 39.9289 216.308 40.6052C215.964 39.5723 215.685 38.7335 215.544 38.3096C215.397 37.7967 215.255 37.3835 215.197 37.0261L213.501 37.5346ZM218.685 42.992C218.72 43.0955 218.755 43.199 218.789 43.3025C218.922 43.1651 219.055 43.0167 219.19 42.8632C219.024 42.9055 218.855 42.9487 218.685 42.992Z" fill="#421F0C"/>
<path d="M196.251 32.9631C196.653 32.8736 197.075 32.9541 197.417 33.1852C197.759 33.4163 197.99 33.7777 198.057 34.1846C198.084 34.3497 198.123 34.5674 198.167 34.793L198.308 35.4507L198.321 35.5155C198.339 35.607 198.39 35.8276 198.468 36.1484C199.799 35.8565 200.952 35.5945 201.562 35.4393L201.601 35.4304C202.134 35.3097 202.589 35.1773 202.856 35.0837C203.255 34.9434 203.695 34.9786 204.067 35.1802C204.44 35.3817 204.709 35.7311 204.81 36.1421L205.217 37.8039C205.319 38.221 205.238 38.6624 204.993 39.0153C204.748 39.3683 204.363 39.5993 203.937 39.65C203.719 39.676 203.243 39.7802 202.637 39.9022L202.638 39.9032C201.987 40.0393 200.857 40.2787 199.564 40.5526C199.651 40.8941 199.737 41.2415 199.826 41.5902C201.256 41.2743 202.512 40.9929 203.265 40.8143C203.976 40.6446 204.502 40.4876 204.863 40.3637L205.014 40.3207C205.367 40.2396 205.74 40.2892 206.062 40.4629C206.43 40.6614 206.698 41.0043 206.802 41.4092L207.23 43.0699C207.335 43.4815 207.261 43.9186 207.026 44.2725C206.791 44.6266 206.416 44.8641 205.996 44.9264C205.644 44.9785 205.114 45.1083 204.31 45.2818C204.304 45.283 204.298 45.2845 204.293 45.2856C203.499 45.4473 202.295 45.7024 200.945 45.9913C201.246 47.1694 201.48 48.0719 201.572 48.4171C201.749 48.9948 201.917 49.57 202.112 50.0525C202.275 50.4575 202.255 50.9141 202.054 51.3023C201.854 51.6904 201.494 51.9716 201.07 52.0731L199.25 52.5088C198.854 52.6034 198.436 52.5322 198.093 52.3126C197.75 52.0931 197.51 51.7438 197.43 51.3446C197.275 50.5697 197.21 50.0992 197.066 49.6141C197.054 49.5763 197.045 49.5378 197.037 49.4992C196.97 49.1848 196.739 48.2289 196.429 46.9688C194.752 47.3354 193.291 47.6589 192.549 47.8311L192.548 47.8302C191.796 48.0059 191.293 48.1442 190.921 48.2666C190.527 48.3963 190.097 48.3567 189.733 48.1581C189.37 47.9596 189.104 47.6194 189 47.2183L188.549 45.4786C188.439 45.0531 188.521 44.6005 188.773 44.2407C189.026 43.8809 189.423 43.6503 189.861 43.6092C190.273 43.5706 190.973 43.4608 191.445 43.3628L191.478 43.3562C192.235 43.2169 193.681 42.9146 195.331 42.5637C195.242 42.2086 195.152 41.8557 195.065 41.5087C193.784 41.7832 192.697 42.0183 192.132 42.1449C191.626 42.2662 191.18 42.3838 190.641 42.544C190.25 42.6599 189.83 42.6116 189.475 42.4108C189.121 42.21 188.862 41.8735 188.761 41.4788L188.31 39.7205C188.203 39.305 188.28 38.8634 188.52 38.5078C188.76 38.1523 189.14 37.9163 189.566 37.86C190.065 37.7938 190.579 37.729 191.19 37.6398C191.726 37.552 192.742 37.3526 193.945 37.1067C193.878 36.8508 193.83 36.6665 193.803 36.5714C193.798 36.5573 193.795 36.5431 193.792 36.5289C193.682 36.0971 193.558 35.7231 193.418 35.367C193.258 34.9591 193.284 34.5013 193.49 34.1145C193.696 33.7277 194.062 33.4498 194.489 33.3547L196.251 32.9631ZM194.815 34.8193C194.976 35.2315 195.119 35.665 195.245 36.1591C195.314 36.4016 195.517 37.1846 195.79 38.2558C193.933 38.6457 192.209 38.9933 191.433 39.1204C190.797 39.2135 190.259 39.2811 189.762 39.3469L190.214 41.1061C190.786 40.9363 191.26 40.8117 191.794 40.6839C192.559 40.5123 194.291 40.1401 196.165 39.7403C196.476 40.9676 196.827 42.3656 197.162 43.7067C194.908 44.193 192.748 44.6477 191.749 44.8314C191.234 44.9382 190.479 45.0572 190.001 45.102L190.452 46.8417C190.885 46.6992 191.438 46.5503 192.209 46.3702C193.162 46.1489 195.285 45.6804 197.532 45.1925C198.015 47.141 198.411 48.7494 198.504 49.1874C198.674 49.7594 198.766 50.3754 198.901 51.0493L200.721 50.6146C200.491 50.0457 200.296 49.3746 200.127 48.8226C200.007 48.3714 199.598 46.7785 199.107 44.8516C199.873 44.6864 200.625 44.5242 201.321 44.3758L203.993 43.8158C204.726 43.6576 205.359 43.5043 205.776 43.4426L205.35 41.7828C204.937 41.9244 204.365 42.0947 203.613 42.2738L202.509 42.5296C201.485 42.7627 200.137 43.0588 198.729 43.3663C198.389 42.0282 198.037 40.6326 197.73 39.4068C199.624 39.0043 201.435 38.6222 202.332 38.4346C202.867 38.3268 203.461 38.1957 203.76 38.1601L203.354 36.4992C203.019 36.6167 202.506 36.7638 201.932 36.8938C201.095 37.1066 199.276 37.5115 197.358 37.9231C197.082 36.8109 196.889 36.0078 196.848 35.7953C196.746 35.3601 196.636 34.7851 196.577 34.4276L194.815 34.8193Z" fill="#421F0C"/>
<path d="M174.414 34.9567C174.835 34.9348 175.246 35.0909 175.546 35.3869C175.846 35.683 176.008 36.0917 175.991 36.5128C175.98 36.8137 175.939 37.3113 175.964 37.8001C176.022 38.9187 176.093 40.577 176.094 42.2192C176.094 43.8215 176.03 45.5473 175.775 46.7331C175.774 46.7377 175.772 46.7423 175.771 46.7469C175.215 49.218 173.879 51.4889 172.055 53.1756C171.57 53.6245 170.848 53.7027 170.278 53.3686L168.709 52.4486C168.281 52.1978 168.004 51.7517 167.97 51.2568C167.936 50.762 168.15 50.2822 168.539 49.9756C169.882 48.9195 170.805 47.383 171.233 45.6926C171.235 45.6853 171.237 45.678 171.239 45.6707C171.433 44.9517 171.514 43.6742 171.51 42.1617C171.507 40.6979 171.429 39.1807 171.371 38.058C171.344 37.5491 171.293 37.237 171.216 36.9728C171.087 36.5325 171.165 36.0569 171.431 35.6825C171.696 35.3081 172.119 35.0758 172.577 35.052L174.414 34.9567ZM179.719 37.6053C179.68 36.8463 179.729 36.263 179.741 36.1021L177.903 36.1975C177.912 36.3573 178.04 36.9118 178.08 37.6708L178.7 49.6342C178.721 50.0337 178.683 50.4563 178.619 50.76L179.723 51.5838C179.877 51.4757 180.068 51.2851 180.399 51.1077C182.515 49.909 184.977 47.9182 186.608 45.6742L186.923 45.2227L185.893 43.8935C184.492 46.229 182.13 48.174 180.316 49.1093L179.719 37.6053ZM172.655 36.55C172.776 36.9641 172.839 37.4013 172.869 37.9803C172.985 40.2172 173.192 44.1924 172.688 46.061L172.587 46.4281C172.051 48.2569 171 49.9485 169.467 51.1547L171.037 52.0746C172.642 50.5894 173.82 48.5852 174.308 46.417C174.743 44.3916 174.581 40.0947 174.466 37.8778C174.436 37.2987 174.484 36.6754 174.492 36.4546L172.655 36.55ZM181.678 46.4053C182.771 45.5159 183.855 44.3745 184.606 43.1222C184.861 42.6975 185.309 42.4256 185.804 42.3961C186.298 42.3666 186.775 42.5831 187.078 42.9744L188.109 44.3026C188.504 44.812 188.529 45.5172 188.172 46.0537C186.395 48.7216 183.546 51.0487 181.139 52.413C181.128 52.4188 181.118 52.4246 181.107 52.4302C181.036 52.4686 180.975 52.5105 180.909 52.5618C180.87 52.5916 180.839 52.617 180.785 52.6601C180.74 52.6955 180.666 52.7557 180.583 52.8134C180.053 53.1842 179.344 53.1731 178.826 52.7862L177.722 51.9624C177.253 51.6125 177.03 51.0214 177.152 50.4489C177.188 50.2751 177.216 49.9833 177.202 49.7119L176.582 37.7485C176.565 37.4341 176.531 37.1569 176.497 36.9325C176.48 36.8154 176.464 36.7244 176.448 36.626C176.438 36.5661 176.413 36.4129 176.405 36.2752C176.362 35.4479 176.998 34.7424 177.826 34.6995L179.663 34.6042C180.093 34.5819 180.512 34.7447 180.813 35.052C181.114 35.3594 181.268 35.7822 181.237 36.2113C181.225 36.3683 181.183 36.8704 181.217 37.5276L181.678 46.4053Z" fill="#421F0C"/>
<path d="M154.846 38.6984C155.259 38.5745 155.706 38.635 156.072 38.8636C156.437 39.0922 156.687 39.4673 156.757 39.893C156.796 40.129 156.88 40.3626 157.051 40.9563C157.126 41.1826 157.238 41.5179 157.376 41.932C159.795 41.3436 162.245 40.7397 162.795 40.584C162.974 40.5326 163.15 40.4578 163.212 40.4225L163.397 40.3337C163.839 40.1581 164.343 40.201 164.752 40.459L165.807 41.1259C166.434 41.5214 166.678 42.315 166.382 42.9941C165.562 44.8701 163.559 47.9358 162.135 49.469C161.697 49.9407 161.006 50.0804 160.419 49.8161L159.941 49.6004C160.267 50.5646 160.528 51.3196 160.652 51.6601L160.9 52.3395C160.981 52.5588 161.058 52.7592 161.124 52.9058C161.299 53.2946 161.3 53.7393 161.127 54.129C160.954 54.5188 160.624 54.8164 160.218 54.9477L158.525 55.4971C158.103 55.6336 157.643 55.5757 157.267 55.3404C156.891 55.1051 156.638 54.7161 156.577 54.2771C156.528 53.926 156.426 53.5078 156.291 53.1204C156.003 52.2955 155.157 49.697 154.35 47.2297C153.084 47.5547 152.077 47.8152 151.685 47.9194C150.913 48.125 150.114 47.688 149.871 46.9262L149.393 45.4294C149.26 45.013 149.315 44.5588 149.544 44.1865C149.773 43.8143 150.153 43.5601 150.584 43.4911C151.128 43.4041 151.571 43.3274 152.097 43.1935L152.153 43.1798C152.286 43.1514 152.563 43.0839 152.945 42.9941C152.849 42.7154 152.772 42.491 152.715 42.3361C152.712 42.3279 152.709 42.3195 152.706 42.3112C152.566 41.9113 152.431 41.6315 152.314 41.4456C152.063 41.0492 152.011 40.5584 152.175 40.1189C152.34 39.6794 152.701 39.3417 153.15 39.2069L154.846 38.6984ZM153.581 40.6435C153.778 40.9537 153.958 41.3452 154.122 41.8172C154.264 42.1998 154.544 43.0318 154.89 44.0754C153.686 44.3642 152.755 44.5855 152.467 44.647C151.874 44.7979 151.378 44.884 150.822 44.9729L151.3 46.4697C151.827 46.3296 153.458 45.9101 155.336 45.4291C156.263 48.2477 157.396 51.7334 157.708 52.6264C157.872 53.0984 157.999 53.6128 158.062 54.0699L159.757 53.5214C159.599 53.1692 159.386 52.559 159.247 52.1857C158.935 51.336 157.777 47.8738 156.833 45.0453C159.573 44.3455 162.362 43.6375 162.822 43.5289C162.204 44.7425 160.783 46.6784 159.6 47.8012L161.035 48.4484C162.344 47.0387 164.255 44.1149 165.007 42.3937L163.951 41.7277C163.757 41.838 163.462 41.9532 163.205 42.0266C162.532 42.2171 159.186 43.0378 156.389 43.714C156.045 42.6812 155.766 41.8424 155.624 41.4185C155.478 40.9056 155.336 40.4924 155.277 40.135L153.581 40.6435ZM158.766 46.1009C158.8 46.2044 158.835 46.3079 158.87 46.4114C159.002 46.274 159.135 46.1256 159.27 45.9721C159.104 46.0144 158.936 46.0576 158.766 46.1009Z" fill="#421F0C"/>
<path d="M144.859 40.6958C145.393 40.6635 145.904 40.9183 146.2 41.3645L147.265 42.9717C147.579 43.4461 147.598 44.0576 147.314 44.5504C145.584 47.5433 142.787 50.4264 139.52 52.5812L139.517 52.5833C137.395 53.975 134.528 55.0945 132.591 55.6005C131.967 55.7635 131.308 55.5083 130.955 54.9676L129.932 53.3984C129.665 52.9872 129.615 52.4705 129.799 52.0157C129.983 51.5609 130.38 51.2254 130.858 51.1169C132.895 50.6551 135.164 49.7863 136.976 48.6481C139.988 46.709 142.291 44.1529 143.609 41.5215L143.709 41.35C143.968 40.9687 144.391 40.7243 144.859 40.6958ZM144.95 42.1931C143.498 45.0922 140.997 47.8454 137.78 49.9148L137.405 50.1445C135.499 51.2735 133.231 52.1175 131.189 52.5802L132.212 54.1484C133.917 53.7032 136.403 52.7423 138.319 51.5668L138.694 51.3293C141.599 49.4138 144.086 46.9039 145.703 44.3181L146.014 43.8003L144.95 42.1931ZM129.468 41.9099C129.889 41.3312 130.669 41.1253 131.327 41.439C132.58 42.0364 135.05 43.3835 136.008 44.0016C136.683 44.4369 136.896 45.3272 136.49 46.0204L135.644 47.4656C135.436 47.8206 135.092 48.0755 134.691 48.1692C134.291 48.2628 133.869 48.1876 133.526 47.9617C132.564 47.329 130.4 46.1005 129.226 45.5602C128.841 45.3828 128.549 45.0504 128.422 44.6455C128.295 44.2407 128.345 43.801 128.561 43.4356L129.389 42.0314L129.468 41.9099ZM129.853 44.1978C131.104 44.7737 133.333 46.0401 134.349 46.7084L135.196 45.2622C134.304 44.6876 131.893 43.3705 130.682 42.7926L129.853 44.1978ZM132.224 37.2717C132.646 36.6793 133.443 36.4704 134.108 36.7984C135.394 37.4325 137.825 38.8852 138.764 39.4963C139.446 39.9406 139.65 40.8487 139.222 41.5418L138.354 42.948C138.138 43.2979 137.788 43.5446 137.385 43.629C136.983 43.7133 136.563 43.6288 136.224 43.3949C135.29 42.7489 133.099 41.4584 131.963 40.8877C131.594 40.7026 131.318 40.3737 131.2 39.9788C131.081 39.5837 131.13 39.1567 131.336 38.7992L132.144 37.3951L132.224 37.2717ZM132.636 39.5473C133.829 40.1463 136.08 41.4713 137.077 42.1605L137.946 40.7543C137.034 40.1607 134.657 38.7412 133.444 38.1432L132.636 39.5473Z" fill="#421F0C"/>
<path d="M119.002 46.9564C120.737 45.6734 122.368 44.1264 123.322 42.9948L122.022 41.8605C121.049 43.1727 119.296 44.9263 117.478 46.1622C115.892 47.2458 113.029 48.7964 110.426 49.5723L111.281 51.0093C113.489 50.2014 115.762 49.031 117.395 48.0333L117.713 54.1608L117.728 54.6431C117.736 55.1465 117.722 55.6763 117.704 55.9029L119.561 55.8065C119.489 55.5847 119.435 55.0583 119.4 54.5563L119.371 54.0748L119.002 46.9564ZM120.869 53.997C120.884 54.2834 120.906 54.6173 120.935 54.907C120.949 55.0524 120.964 55.1751 120.978 55.2685C120.986 55.3237 120.992 55.3542 120.995 55.3654L120.988 55.3462C121.131 55.7896 121.06 56.274 120.796 56.6577C120.531 57.0415 120.104 57.2804 119.638 57.3045L117.781 57.4009C117.35 57.4233 116.929 57.2584 116.628 56.9483C116.326 56.6382 116.173 56.2129 116.208 55.782C116.227 55.5543 116.243 54.7801 116.215 54.2385L116.023 50.5267C114.707 51.2132 113.242 51.8892 111.796 52.4181C111.119 52.6659 110.361 52.3962 109.992 51.7764L109.136 50.3393C108.9 49.9419 108.86 49.4575 109.028 49.0267C109.196 48.596 109.554 48.2667 109.997 48.1345C112.416 47.4134 115.14 45.9426 116.632 44.9231L116.635 44.921C118.313 43.781 119.942 42.1456 120.817 40.9666C121.066 40.6307 121.445 40.4147 121.861 40.3698C122.276 40.3248 122.692 40.4549 123.008 40.7297L124.308 41.8641C124.925 42.402 124.996 43.3352 124.469 43.9611C123.561 45.0393 122.119 46.4285 120.541 47.6677L120.869 53.997Z" fill="#421F0C"/>
<path d="M91.0007 40.1214C91.4665 40.1659 92.195 40.1836 92.785 40.153L92.8628 41.651L92.3473 41.667C91.8184 41.6737 91.2657 41.654 90.8582 41.6151L90.9504 43.392C91.3241 43.3576 91.7984 43.3074 92.3491 43.2667L92.9241 43.23L103.151 42.6994C102.97 44.6313 102.195 47.4548 100.872 49.3459C99.305 51.5701 97.1562 53.3847 93.3312 54.5444L94.7665 55.972C98.3625 54.6439 100.643 52.6622 102.34 50.231C103.831 48.0909 104.623 44.8255 104.953 42.7056C105.012 42.3021 105.075 41.9783 105.201 41.6914L103.942 40.9764C103.661 41.051 103.366 41.0917 103.11 41.1144L102.869 41.1318L102.791 39.6338C103.038 39.621 103.323 39.589 103.558 39.5266L103.701 39.4957C104.038 39.4409 104.384 39.5018 104.683 39.6716L105.943 40.3876C106.61 40.7669 106.883 41.5887 106.576 42.2919C106.537 42.3812 106.494 42.5332 106.437 42.924L106.435 42.9368C106.108 45.0351 105.317 48.4342 103.726 50.8573L103.57 51.0893C101.707 53.7595 99.1832 55.9393 95.2864 57.3786C94.7387 57.5807 94.1239 57.4466 93.7098 57.035L92.2736 55.6075C91.8993 55.2353 91.7484 54.6941 91.8759 54.1818C92.0035 53.6695 92.3907 53.2622 92.8959 53.109C96.3996 52.0467 98.2707 50.4345 99.6457 48.4825C100.439 47.3476 101.029 45.7526 101.367 44.294L93.0019 44.728C92.2426 44.7674 91.6163 44.8373 91.0876 44.886C90.681 44.9234 90.2764 44.7937 89.9678 44.5265C89.6593 44.2593 89.4736 43.8774 89.4524 43.4698L89.3602 41.6929C89.3376 41.2574 89.5053 40.8334 89.8202 40.5317C90.1353 40.2301 90.5665 40.0799 91.0007 40.1214ZM102.791 39.6338L102.869 41.1318L92.8628 41.651L92.785 40.153L102.791 39.6338Z" fill="#421F0C"/>
<path d="M78.9653 55.3749C78.284 55.3802 77.4708 55.3467 76.7456 55.2642L76.972 56.9148C77.7233 56.9209 78.5757 56.9214 79.3846 56.8992L80.1742 56.869C81.3723 56.8067 81.982 56.2142 81.9071 55.1568C81.7638 52.6537 81.494 48.6991 81.2892 45.6966L84.4519 45.5325L84.855 45.5174C85.2796 45.5076 85.7527 45.5096 86.1129 45.506L86.0248 43.808C85.6285 43.8887 84.8524 43.9891 84.3331 44.0161L84.2554 42.5181C84.7043 42.4948 85.406 42.4032 85.7256 42.3382C86.1534 42.2511 86.598 42.3549 86.9431 42.6221C87.2883 42.8895 87.5002 43.2943 87.5228 43.7303L87.6109 45.4282C87.6321 45.8363 87.4855 46.235 87.2057 46.5327C86.9258 46.8305 86.5368 47.002 86.1282 47.0062C85.6018 47.0116 84.9874 47.0067 84.5296 47.0305L82.8883 47.1156C83.074 49.8396 83.2841 52.9665 83.4036 55.0508L83.4133 55.369C83.4039 56.1131 83.1689 56.8666 82.5701 57.4556C81.9203 58.0945 81.0564 58.3251 80.2519 58.3669C79.1853 58.4223 77.9652 58.4227 76.9599 58.4145C76.2147 58.4085 75.5865 57.8565 75.4855 57.1181L75.26 55.4674C75.1973 55.0088 75.3497 54.5468 75.6732 54.2158C75.9969 53.8847 76.4556 53.7215 76.9157 53.7739C77.5087 53.8413 78.1735 53.8698 78.7523 53.8722C78.7118 53.139 78.6611 52.2458 78.6022 51.2808C76.8342 53.1913 74.5882 55.1313 72.2686 56.5222C71.672 56.88 70.9079 56.7811 70.4227 56.2826L69.2162 55.0436C68.891 54.7094 68.7403 54.2424 68.8075 53.7809C68.8747 53.3194 69.1525 52.9153 69.5595 52.6877C72.0949 51.2703 74.3722 49.2937 75.9845 47.4738L72.5662 47.6512C71.9439 47.6834 71.4374 47.745 70.7855 47.8198C70.3743 47.8669 69.9619 47.7424 69.646 47.4751C69.3299 47.2076 69.1387 46.8208 69.1173 46.4073L69.0292 44.7104C69.0072 44.2862 69.1657 43.8723 69.4659 43.5719C69.7661 43.2716 70.1799 43.1127 70.604 43.1345C71.1439 43.1621 71.7529 43.1668 72.292 43.1388L72.3697 44.6368L71.911 44.6537C71.445 44.6638 70.9639 44.655 70.5272 44.6326L70.6153 46.3296C71.0928 46.2748 71.5255 46.2231 71.9983 46.1855L72.4885 46.1532L79.089 45.8107C77.6269 48.3096 74.2321 51.7941 70.2914 53.9973L71.4978 55.2362C74.9824 53.1466 78.2924 49.7364 79.8495 47.2948C80.028 49.9654 80.2087 52.916 80.2919 54.5199L80.2929 54.7095C80.2721 55.1223 80.084 55.3314 79.595 55.3569L78.9653 55.3749ZM80.993 39.0829C81.4285 39.0603 81.8525 39.228 82.1541 39.5429C82.4558 39.858 82.6059 40.2892 82.5645 40.7234C82.531 41.0738 82.5189 41.4358 82.5311 41.7773L82.5514 42.1107L82.5545 42.1526C82.5626 42.2855 82.574 42.4367 82.5848 42.6048L84.2554 42.5181L84.3331 44.0161L81.187 44.1793L81.0572 42.243C81.0093 41.705 81.0188 41.1241 81.0707 40.5809L79.2333 40.6762C79.3349 41.0914 79.4 41.5684 79.4792 42.3249C79.5239 42.7847 79.5771 43.4576 79.6373 44.2597L72.3697 44.6368L72.292 43.1388L78.0187 42.8417C78.0071 42.7104 77.9978 42.5899 77.9873 42.4815C77.9082 41.7271 77.8513 41.3395 77.7762 41.0325C77.67 40.5983 77.7633 40.139 78.03 39.7803C78.2967 39.4219 78.7094 39.2014 79.1556 39.1782L80.993 39.0829Z" fill="#421F0C"/>
<path d="M55.1549 60.5197L34.725 61.5797L44.0421 43.7439L55.1549 60.5197Z" fill="#C8BE6E"/>
<path d="M44.0031 42.9951C44.2681 42.9814 44.5213 43.1091 44.6679 43.3303L55.7805 60.1061C55.9289 60.3305 55.9455 60.6176 55.8244 60.8578C55.7031 61.098 55.4622 61.255 55.1935 61.269L34.7639 62.3289C34.4951 62.3429 34.2393 62.2117 34.0939 61.9853C33.9485 61.7587 33.9361 61.4716 34.0607 61.233L43.3776 43.3972L43.4289 43.3124C43.5604 43.1256 43.7714 43.0072 44.0031 42.9951ZM35.9979 60.7629L53.804 59.8391L44.1184 45.2168L35.9979 60.7629Z" fill="#421F0C"/>
<path d="M47.4654 59.7045C47.8934 60.3498 47.4572 61.2158 46.6839 61.2559L43.2257 61.4354C42.4526 61.4755 41.9291 60.6598 42.2875 59.9737L43.8635 56.9566C44.2158 56.2821 45.1626 56.2327 45.5832 56.8669L47.4654 59.7045Z" fill="#421F0C"/>
<path d="M42.2089 40.9765C42.5542 40.7479 43.0189 40.8424 43.2476 41.1876L44.6672 43.3299C44.8959 43.6752 44.8014 44.1408 44.4561 44.3695C44.1109 44.598 43.6462 44.5035 43.4174 44.1584L41.9978 42.0152C41.7692 41.6699 41.8637 41.2053 42.2089 40.9765Z" fill="#421F0C"/>
<path d="M44.7482 41.1097C44.9399 40.7426 45.3923 40.6005 45.7594 40.7922C46.1265 40.984 46.2686 41.4364 46.0769 41.8035L44.8867 44.0821C44.6949 44.449 44.2425 44.5911 43.8755 44.3996C43.5083 44.2078 43.3661 43.7544 43.5579 43.3873L44.7482 41.1097Z" fill="#421F0C"/>
</svg>
