<svg width="339" height="106" viewBox="0 0 339 106" fill="none" xmlns="http://www.w3.org/2000/svg">
<path d="M164.834 72.647H158.55V105.821H164.834V72.647Z" fill="#421F0C"/>
<path d="M291.764 74.6218L291.466 68.8832C291.431 68.2105 291.13 67.5792 290.628 67.1282C290.127 66.6773 289.467 66.4436 288.792 66.4786L7.78384 81.0624C7.36194 81.0844 6.94122 81.0012 6.55962 80.8204C6.17802 80.6396 5.84754 80.3669 5.59798 80.0268C5.34842 79.6866 5.18763 79.2899 5.13012 78.8722C5.0726 78.4546 5.12016 78.0293 5.26851 77.6345L13.4214 55.8947C13.5431 55.5679 13.5966 55.2197 13.5785 54.8715C13.5605 54.5233 13.4712 54.1825 13.3163 53.87L2.95678 33.091C2.76837 32.7137 2.67702 32.2955 2.691 31.8742C2.70497 31.4529 2.82383 31.0416 3.03684 30.6775C3.24985 30.3134 3.55032 30.0079 3.91116 29.7886C4.27199 29.5692 4.68183 29.4429 5.10374 29.4211L286.095 14.8381C286.429 14.8208 286.756 14.738 287.058 14.5945C287.36 14.451 287.63 14.2497 287.854 14.0019C288.078 13.7541 288.251 13.4648 288.362 13.1504C288.474 12.836 288.523 12.5027 288.506 12.1696L288.208 6.43104C288.182 5.94444 288.296 5.46055 288.538 5.0371C288.78 4.61365 289.138 4.26851 289.571 4.04286C290.004 3.8172 290.493 3.72057 290.979 3.76446C291.466 3.80835 291.929 3.99092 292.314 4.2904L333.652 36.3612C333.941 36.5855 334.178 36.8692 334.347 37.193C334.516 37.5168 334.613 37.8731 334.632 38.2378C334.651 38.6025 334.591 38.967 334.457 39.3066C334.322 39.6462 334.116 39.9529 333.852 40.2059L296.056 76.3836C295.7 76.7195 295.254 76.9456 294.772 77.0349C294.29 77.1241 293.792 77.0726 293.339 76.8865C292.886 76.7005 292.496 76.3878 292.217 75.986C291.937 75.5843 291.78 75.1106 291.764 74.6218Z" fill="#C8BE6E"/>
<path d="M286.71 6.50878C286.669 5.73519 286.851 4.96583 287.235 4.29302C287.62 3.61953 288.191 3.07099 288.878 2.71258C289.566 2.35423 290.342 2.20122 291.114 2.27091C291.886 2.34057 292.622 2.63006 293.234 3.10554L334.571 35.1761L334.572 35.177C335.031 35.5333 335.408 35.9838 335.677 36.4985C335.945 37.0132 336.1 37.5798 336.131 38.1598C336.161 38.74 336.065 39.3203 335.851 39.8602C335.637 40.3999 335.309 40.8871 334.89 41.2889L334.889 41.2899L297.093 77.4674L297.084 77.4747C296.518 78.0086 295.81 78.3678 295.045 78.5095C294.279 78.6511 293.489 78.57 292.769 78.2746C292.049 77.979 291.429 77.4818 290.985 76.8427C290.546 76.2112 290.297 75.4675 290.266 74.6993L290.265 74.6994L289.968 68.961C289.953 68.6866 289.831 68.4282 289.625 68.2434C289.42 68.0585 289.148 67.9621 288.87 67.9765L7.86165 82.5604C7.19176 82.5952 6.5235 82.4635 5.91726 82.1762C5.31096 81.889 4.78582 81.4549 4.38884 80.9139C3.99189 80.3729 3.73576 79.7418 3.6442 79.077C3.55268 78.4125 3.62798 77.7357 3.86373 77.1079L12.0165 55.368C12.0659 55.2341 12.0882 55.0915 12.0808 54.9491C12.0734 54.8067 12.0366 54.6673 11.9735 54.5391L1.61404 33.76L1.61497 33.7589C1.31574 33.159 1.16963 32.4943 1.19186 31.8242C1.21416 31.1536 1.40357 30.4991 1.74235 29.92C2.08114 29.341 2.55878 28.8557 3.13193 28.5073C3.70512 28.1588 4.35607 27.9576 5.02607 27.9229L286.017 13.34C286.155 13.3329 286.29 13.2992 286.414 13.2402C286.538 13.1812 286.65 13.098 286.741 12.9963C286.833 12.8948 286.904 12.7765 286.949 12.6482C286.995 12.5196 287.015 12.383 287.008 12.2472L286.71 6.50878ZM290.004 12.0917C290.031 12.6219 289.953 13.1523 289.776 13.6525C289.598 14.1527 289.323 14.6138 288.967 15.0077C288.611 15.4014 288.182 15.7217 287.702 15.9495C287.223 16.1775 286.703 16.3085 286.173 16.336L5.18155 30.9189C5.00786 30.9279 4.83909 30.9804 4.6907 31.0705C4.54234 31.1607 4.41838 31.2863 4.3312 31.4354C4.24421 31.5842 4.19604 31.7521 4.19031 31.9238C4.18461 32.0956 4.22131 32.2667 4.29825 32.4208L4.29927 32.4217L14.6587 53.2008L14.6598 53.2037C14.9057 53.6997 15.0481 54.2408 15.0768 54.7936C15.1055 55.3465 15.0199 55.8994 14.8266 56.4181L14.8258 56.4211L6.67306 78.161L6.67213 78.162C6.61151 78.3233 6.59278 78.4971 6.61623 78.6675C6.6397 78.838 6.70485 79.0005 6.80697 79.1397C6.90911 79.2789 7.04542 79.391 7.20231 79.4654C7.35909 79.5395 7.53249 79.5734 7.70617 79.5644L288.715 64.9805C289.785 64.925 290.834 65.2964 291.632 66.0134C292.429 66.7304 292.908 67.7345 292.964 68.8055L293.263 74.5721C293.269 74.7716 293.334 74.9653 293.448 75.1297C293.563 75.294 293.722 75.4224 293.908 75.4989C294.095 75.5754 294.3 75.5969 294.498 75.5602C294.697 75.5235 294.881 75.4301 295.027 75.2922L332.815 39.1221C332.923 39.0181 333.007 38.8921 333.062 38.7532C333.118 38.614 333.142 38.4645 333.135 38.3153C333.127 38.1662 333.087 38.02 333.017 37.8872C332.948 37.7545 332.851 37.6384 332.732 37.5461L332.732 37.5451L291.395 5.47551L291.394 5.47458C291.236 5.35177 291.045 5.27676 290.845 5.25861C290.645 5.24053 290.443 5.28011 290.265 5.3728C290.087 5.46564 289.939 5.60783 289.84 5.7811C289.742 5.95427 289.695 6.15187 289.706 6.35037L290.004 12.0917Z" fill="#421F0C"/>
<path d="M261.127 46.9221C261.192 46.6183 261.23 46.1958 261.209 45.7963C261.162 44.8776 260.654 35.0907 260.588 33.8324C260.549 33.0735 260.42 32.5194 260.412 32.3596L262.249 32.2642C262.238 32.4251 262.188 33.0084 262.227 33.7674C262.291 35.0057 262.793 44.6727 262.824 45.2719C264.638 44.3367 267.001 42.3916 268.401 40.0559L269.432 41.3842C267.815 43.8113 265.165 45.9916 262.908 47.2703C262.577 47.4477 262.386 47.6378 262.232 47.746L261.127 46.9221ZM251.976 47.3169C253.611 46.0304 254.697 44.1917 255.196 42.2232C255.7 40.3546 255.494 36.3799 255.377 34.1429C255.347 33.5637 255.285 33.1264 255.163 32.7121L257 32.6167C256.992 32.8375 256.944 33.4608 256.974 34.04C257.089 36.257 257.252 40.5544 256.817 42.5797C256.328 44.7479 255.151 46.7516 253.545 48.2368L251.976 47.3169Z" fill="white"/>
<path d="M234.238 33.9382C234.821 33.968 235.402 33.9779 236.061 33.9437C237.22 33.8836 243.032 33.5819 244.15 33.5239C244.709 33.4949 245.426 33.4176 246.003 33.3276L246.089 34.9854C245.487 34.9766 244.786 34.9729 244.227 35.0019C243.108 35.06 237.296 35.3616 236.158 35.4207C235.499 35.4549 234.842 35.529 234.324 35.5959L234.238 33.9382ZM232.122 39.0748C232.664 39.1067 233.244 39.0966 233.864 39.0645C235.022 39.0044 245.867 38.4415 246.926 38.3866C247.345 38.3648 248.004 38.3106 248.5 38.2248L248.585 39.8626C248.124 39.8665 247.504 39.8786 247.005 39.9045C245.946 39.9595 235.101 40.5223 233.942 40.5824C233.343 40.6135 232.745 40.6646 232.208 40.7325L232.122 39.0748ZM241.571 39.3855C241.701 41.9021 241.489 43.9959 240.678 45.7203C240.028 47.0958 238.584 48.5927 236.952 49.5585L235.418 48.5567C236.921 47.8178 238.3 46.6047 239.013 45.286C239.93 43.6563 239.988 41.6906 239.894 39.4925L241.571 39.3855Z" fill="white"/>
<path d="M221.149 33.7163C221.124 33.998 221.081 34.7212 221.104 35.1606C221.159 36.2192 221.246 37.8969 221.296 38.8556C221.381 40.4934 221.717 46.9647 221.79 48.3828C221.845 49.4414 221.374 50.0066 220.175 50.0688C219.316 50.1133 218.135 50.1146 217.312 50.0772L217.089 48.4866C217.976 48.6008 218.879 48.634 219.418 48.606C219.958 48.578 220.165 48.327 220.158 47.8066C220.101 46.7081 219.748 39.8973 219.698 38.9386C219.663 38.2595 219.56 36.2821 219.505 35.2235C219.483 34.8041 219.367 34.1092 219.292 33.8127L221.149 33.7163ZM212.356 37.5572C212.919 37.5881 213.42 37.6021 214.059 37.5689C215.238 37.5078 225.324 36.9843 226.503 36.9232C226.962 36.8993 227.64 36.8441 228.115 36.7393L228.201 38.3971C227.68 38.3841 227.081 38.4152 226.601 38.4401C225.403 38.5023 215.356 39.0237 214.138 39.0869C213.539 39.118 212.961 39.168 212.443 39.2349L212.356 37.5572ZM217.194 42.0125C216.424 43.7747 214.698 46.4077 213.624 47.7051L212.217 46.8369C213.471 45.5301 215.065 43.0642 215.76 41.4059L217.194 42.0125ZM225.508 40.9201C226.633 42.1434 228.361 44.5571 229.234 45.9537L227.799 46.8493C226.919 45.3329 225.291 42.914 224.187 41.7096L225.508 40.9201Z" fill="white"/>
<path d="M201.208 50.0315C201.272 49.7277 201.311 49.3052 201.29 48.9057C201.242 47.9869 200.734 38.2001 200.669 36.9418C200.63 36.1828 200.501 35.6288 200.492 35.469L202.33 35.3736C202.318 35.5344 202.268 36.1178 202.308 36.8768C202.372 38.1151 202.874 47.7821 202.905 48.3813C204.719 47.446 207.081 45.501 208.482 43.1652L209.512 44.4936C207.896 46.9207 205.245 49.101 202.988 50.3796C202.657 50.5571 202.467 50.7472 202.312 50.8553L201.208 50.0315ZM192.056 50.4263C193.692 49.1398 194.778 47.3011 195.277 45.3326C195.78 43.4639 195.574 39.4893 195.458 37.2523C195.428 36.6731 195.365 36.2357 195.244 35.8215L197.081 35.7261C197.072 35.9469 197.025 36.5702 197.055 37.1494C197.17 39.3664 197.333 43.6637 196.897 45.689C196.409 47.8573 195.231 49.861 193.626 51.3462L192.056 50.4263Z" fill="white"/>
<path d="M177.866 39.4073C177.925 39.7647 178.066 40.1779 178.213 40.691C178.758 42.325 181.346 50.1213 181.836 51.4577C181.975 51.831 182.187 52.4408 182.346 52.7931L180.652 53.3416C180.588 52.8843 180.461 52.3702 180.297 51.8981C179.803 50.4818 177.248 42.5435 176.712 41.0894C176.547 40.6173 176.366 40.2261 176.17 39.9159L177.866 39.4073ZM187.596 41.666C186.844 43.3873 184.933 46.3103 183.625 47.72L182.189 47.0735C183.373 45.9507 184.794 44.0144 185.412 42.8007C184.542 43.0061 175.292 45.3687 173.889 45.7419L173.411 44.2447C173.967 44.1558 174.463 44.0699 175.056 43.919C176.046 43.7074 184.67 41.6176 185.795 41.2989C186.051 41.2255 186.346 41.1101 186.54 40.9999L187.596 41.666Z" fill="white"/>
<path d="M156.033 37.416C157.246 38.014 159.623 39.4327 160.535 40.0262L159.667 41.4331C158.669 40.7439 156.418 39.4188 155.225 38.8198L156.033 37.416ZM153.779 51.8523C155.956 51.3588 158.391 50.4313 160.369 49.1871C163.586 47.1176 166.087 44.3643 167.539 41.4652L168.603 43.0721C167.005 45.8387 164.382 48.5583 161.284 50.6016C159.328 51.8847 156.619 52.9465 154.801 53.4214L153.779 51.8523ZM153.271 42.0655C154.482 42.6435 156.894 43.9602 157.785 44.5348L156.939 45.9806C155.923 45.3124 153.694 44.0462 152.442 43.4703L153.271 42.0655Z" fill="white"/>
<path d="M133.015 48.8444C135.618 48.0684 138.482 46.5179 140.068 45.4342C141.886 44.1983 143.638 42.4452 144.611 41.133L145.911 42.2671C144.817 43.5656 142.83 45.411 140.818 46.7772C139.192 47.8629 136.485 49.3252 133.871 50.2819L133.015 48.8444ZM139.936 46.3623L141.572 45.8569L141.96 53.3468C141.991 53.946 142.055 54.7838 142.15 55.0793L140.293 55.1757C140.317 54.874 140.334 54.032 140.303 53.4328L139.936 46.3623Z" fill="white"/>
<path d="M127.79 40.9644C127.665 41.2513 127.601 41.575 127.542 41.9786C127.212 44.0986 126.42 47.364 124.929 49.5042C123.233 51.9354 120.952 53.9162 117.356 55.2444L115.92 53.8169C119.745 52.6571 121.894 50.8433 123.461 48.6191C124.785 46.7279 125.559 43.904 125.74 41.972C124.581 42.0322 116.672 42.4426 115.513 42.5028C114.714 42.5442 114.037 42.6194 113.539 42.6653L113.447 40.8877C113.99 40.9396 114.792 40.9581 115.451 40.9239C116.59 40.8648 124.559 40.4512 125.458 40.4045C125.757 40.389 126.156 40.3483 126.531 40.2487L127.79 40.9644Z" fill="white"/>
<path d="M103.66 39.8538C103.608 40.3972 103.598 40.9785 103.646 41.5168C103.781 43.7327 104.283 50.6961 104.497 54.43C104.571 55.4876 103.961 56.08 102.763 56.1422C101.744 56.195 100.563 56.1963 99.561 56.1882L99.3352 54.5377C100.302 54.6477 101.425 54.6696 102.184 54.6302C102.743 54.6011 102.909 54.3322 102.881 53.7929C102.733 50.9367 102.283 43.8105 102.068 41.5986C101.989 40.8417 101.924 40.3645 101.822 39.9492L103.66 39.8538ZM93.1158 43.9057C93.6981 43.9356 94.3593 43.9413 94.9585 43.9102C96.017 43.8553 105.904 43.3422 106.922 43.2893C107.442 43.2624 108.218 43.162 108.614 43.0814L108.702 44.7791C108.222 44.784 107.54 44.7793 107.041 44.8052C106.162 44.8508 95.976 45.3795 95.0772 45.4261C94.3981 45.4614 93.8409 45.5303 93.2039 45.6034L93.1158 43.9057ZM92.8808 53.2705C96.9873 50.9746 100.501 47.2875 101.853 44.7741L102.651 44.7326L102.741 46.0698C101.346 48.5254 97.8158 52.2734 94.0867 54.5097L92.8808 53.2705Z" fill="white"/>
<path d="M256.923 31.1187C257.344 31.0968 257.754 31.2529 258.054 31.5489C258.354 31.8449 258.516 32.2536 258.5 32.6748C258.488 32.9757 258.447 33.4733 258.473 33.9621C258.531 35.0807 258.602 36.7389 258.602 38.3812C258.603 39.9835 258.538 41.7092 258.283 42.895C258.282 42.8997 258.281 42.9043 258.28 42.9089C257.723 45.38 256.387 47.6509 254.564 49.3377C254.079 49.7865 253.357 49.8648 252.787 49.5306L251.217 48.6107C250.789 48.3599 250.512 47.9138 250.479 47.4189C250.445 46.9241 250.658 46.4443 251.048 46.1377C252.39 45.0816 253.313 43.545 253.742 41.8546C253.743 41.8473 253.745 41.84 253.747 41.8328C253.941 41.1137 254.022 39.8362 254.019 38.3238C254.016 36.8599 253.938 35.3428 253.879 34.22C253.853 33.7112 253.802 33.399 253.724 33.1348C253.595 32.6946 253.674 32.219 253.939 31.8446C254.204 31.4702 254.627 31.2378 255.085 31.214L256.923 31.1187ZM262.227 33.7672C262.188 33.0083 262.237 32.4249 262.249 32.2641L260.412 32.3594C260.42 32.5192 260.549 33.0738 260.588 33.8327L261.209 45.7961C261.23 46.1956 261.192 46.6182 261.127 46.922L262.231 47.7458C262.386 47.6376 262.576 47.447 262.908 47.2696C265.023 46.0709 267.485 44.0801 269.117 41.836L269.432 41.3845L268.401 40.0553C267.001 42.3909 264.638 44.3359 262.824 45.2713L262.227 33.7672ZM255.163 32.712C255.285 33.1261 255.347 33.5633 255.377 34.1423C255.493 36.3793 255.7 40.3544 255.196 42.2231L255.096 42.5901C254.56 44.419 253.509 46.1106 251.975 47.3168L253.546 48.2366C255.151 46.7514 256.328 44.7472 256.816 42.579C257.252 40.5535 257.09 36.2567 256.975 34.0398C256.945 33.4607 256.992 32.8374 257.001 32.6166L255.163 32.712ZM264.186 42.5672C265.28 41.6778 266.363 40.5364 267.115 39.284C267.369 38.8593 267.818 38.5874 268.312 38.5579C268.806 38.5284 269.283 38.7449 269.587 39.1362L270.617 40.4644C271.012 40.9737 271.038 41.679 270.68 42.2154C268.904 44.8834 266.055 47.2106 263.647 48.5748C263.637 48.5807 263.626 48.5865 263.616 48.5921C263.544 48.6304 263.484 48.6724 263.417 48.7237C263.378 48.7535 263.347 48.7789 263.293 48.822C263.249 48.8574 263.174 48.9176 263.092 48.9753C262.562 49.3461 261.853 49.3351 261.334 48.9482L260.23 48.1244C259.762 47.7744 259.539 47.1833 259.66 46.6109C259.697 46.437 259.725 46.1453 259.711 45.8739L259.09 33.9105C259.074 33.5961 259.039 33.3189 259.006 33.0944C258.988 32.9774 258.972 32.8863 258.956 32.788C258.947 32.728 258.921 32.5749 258.914 32.4372C258.871 31.6098 259.507 30.9044 260.334 30.8614L262.171 30.7661C262.601 30.7438 263.02 30.9066 263.321 31.2139C263.622 31.5213 263.776 31.9441 263.745 32.3732C263.734 32.5302 263.691 33.0323 263.725 33.6895L264.186 42.5672Z" fill="#421F0C"/>
<path d="M248.244 36.7468C248.666 36.6737 249.101 36.7849 249.436 37.0526C249.771 37.3203 249.975 37.7188 249.997 38.1471L250.082 39.7845C250.104 40.1931 249.957 40.5931 249.676 40.891C249.396 41.1886 249.006 41.3592 248.597 41.3626C248.146 41.3664 247.55 41.3779 247.082 41.4021L243.087 41.6095C243.011 43.3318 242.709 44.9263 242.034 46.3589L242.034 46.3609C241.23 48.0629 239.547 49.7656 237.715 50.8495C237.224 51.1403 236.61 51.1266 236.131 50.8144L234.597 49.8125C234.146 49.5177 233.888 49.0029 233.921 48.4649C233.954 47.9269 234.273 47.4476 234.756 47.2099C236.044 46.5769 237.159 45.56 237.693 44.5727L237.705 44.5505C238.126 43.8037 238.325 42.9261 238.395 41.853L234.02 42.0801C233.452 42.1095 232.891 42.1575 232.396 42.2201C231.982 42.2724 231.565 42.1504 231.245 41.8828C230.925 41.6153 230.732 41.2267 230.71 40.8104L230.624 39.1525C230.602 38.7264 230.762 38.3106 231.064 38.01C231.367 37.7094 231.784 37.552 232.21 37.577C232.675 37.6044 233.194 37.5973 233.785 37.5666L233.863 39.0646L233.407 39.0844C232.957 39.0993 232.529 39.0987 232.122 39.0748L232.208 40.7327C232.745 40.6648 233.343 40.6132 233.942 40.5821L239.92 40.2718C239.962 42.1563 239.82 43.851 239.013 45.2855C238.3 46.6042 236.921 47.8174 235.418 48.5563L236.951 49.5583C238.481 48.6528 239.847 47.2808 240.547 45.9794L240.677 45.7204C241.401 44.1819 241.648 42.3491 241.6 40.1846L247.004 39.9041C247.504 39.8782 248.124 39.8661 248.584 39.8622L248.499 38.2248C248.003 38.3106 247.345 38.3649 246.926 38.3867L246.848 36.8887C247.242 36.8682 247.832 36.8179 248.244 36.7468ZM246.848 36.8887L246.926 38.3867L233.863 39.0646L233.785 37.5666L246.848 36.8887ZM245.771 31.845C246.19 31.7794 246.618 31.8956 246.948 32.1633C247.277 32.4309 247.478 32.8254 247.5 33.2494L247.586 34.9073C247.608 35.3219 247.457 35.7272 247.169 36.0262C246.881 36.3251 246.481 36.4914 246.066 36.4853C245.466 36.4765 244.809 36.4733 244.305 36.4994L236.236 36.9182C235.632 36.9496 235.018 37.019 234.517 37.0837C234.103 37.1373 233.684 37.0151 233.363 36.7475C233.043 36.4799 232.848 36.0905 232.827 35.6733L232.741 34.0154C232.719 33.5914 232.877 33.1783 233.177 32.8779C233.478 32.5776 233.891 32.4177 234.315 32.4395C234.86 32.4674 235.388 32.4767 235.983 32.4458L244.073 32.026C244.575 31.9999 245.24 31.9278 245.771 31.845ZM246.002 33.3271C245.426 33.4171 244.709 33.4949 244.15 33.524L236.061 33.9438C235.402 33.978 234.821 33.9675 234.239 33.9376L234.325 35.5956C234.842 35.5287 235.499 35.4544 236.158 35.4202L244.227 35.0015C244.786 34.9725 245.487 34.9762 246.088 34.9851L246.002 33.3271Z" fill="#421F0C"/>
<path d="M212.438 36.0594C212.97 36.0886 213.415 36.0997 213.982 36.0703L214.06 37.5682L213.603 37.5851C213.166 37.5937 212.779 37.5801 212.357 37.5569L212.444 39.2343C212.832 39.1842 213.254 39.1441 213.693 39.1137L214.139 39.0867L219.691 38.7986L220.158 47.806C220.165 48.3263 219.958 48.5772 219.418 48.6052C218.879 48.6331 217.977 48.6005 217.09 48.4864L217.312 50.0766C217.93 50.1047 218.749 50.1115 219.482 50.0941L220.176 50.0679C221.299 50.0095 221.783 49.5094 221.794 48.5748L221.79 48.3823L221.288 38.7157L226.601 38.4399C227.081 38.415 227.68 38.384 228.201 38.397L228.115 36.7391C227.64 36.8437 226.962 36.8986 226.503 36.9225L226.425 35.4245C226.874 35.4012 227.447 35.3505 227.792 35.2743C228.223 35.1794 228.673 35.2787 229.024 35.5458C229.375 35.813 229.59 36.221 229.613 36.6613L229.699 38.3192C229.72 38.7364 229.567 39.1439 229.276 39.4433C228.985 39.7424 228.582 39.9063 228.164 39.896C227.711 39.8847 227.171 39.9124 226.679 39.9379L226.645 39.9397C227.855 41.2653 229.615 43.7316 230.507 45.1577C230.718 45.4952 230.785 45.9031 230.695 46.291C230.606 46.6788 230.366 47.0156 230.028 47.2263L228.593 48.1212C228.249 48.3362 227.831 48.4024 227.437 48.3044C227.043 48.2064 226.706 47.953 226.502 47.6019C225.645 46.1248 224.08 43.8117 223.082 42.7228C223.05 42.6876 223.021 42.6497 222.992 42.6121L223.288 48.3046C223.326 49.0432 223.198 49.9219 222.553 50.6182C221.917 51.3048 221.044 51.5248 220.254 51.5658C219.345 51.613 218.114 51.6149 217.244 51.5753C216.523 51.5426 215.927 51 215.827 50.2848L215.603 48.6946C215.539 48.2314 215.694 47.7635 216.023 47.4309C216.352 47.0986 216.817 46.9384 217.28 46.998C217.753 47.0588 218.224 47.0905 218.62 47.1045L218.405 42.9714C217.514 44.8591 215.853 47.3642 214.779 48.6611C214.302 49.2375 213.473 49.374 212.836 48.981L211.43 48.1132C211.044 47.8753 210.786 47.4755 210.729 47.026C210.672 46.5766 210.821 46.1252 211.135 45.7983C212.255 44.6305 213.751 42.3215 214.378 40.8257L214.441 40.6914C214.464 40.6494 214.488 40.6086 214.515 40.5692L214.216 40.5847C213.649 40.6141 213.109 40.6613 212.636 40.7224C212.222 40.776 211.804 40.6539 211.483 40.3863C211.162 40.1187 210.968 39.7293 210.946 39.3121L210.859 37.6346C210.837 37.2096 210.996 36.7947 211.297 36.4942C211.599 36.1938 212.014 36.0362 212.438 36.0594ZM215.761 41.4052C215.066 43.0634 213.471 45.5296 212.217 46.8363L213.625 47.705C214.699 46.4077 216.424 43.7746 217.194 42.0124L215.761 41.4052ZM224.187 41.7091C225.291 42.9135 226.919 45.3327 227.799 46.8491L229.235 45.9532C228.361 44.5567 226.634 42.1432 225.509 40.9198L224.187 41.7091ZM222.905 40.9346C223.031 40.7271 223.204 40.5496 223.418 40.422L223.994 40.0772L222.864 40.1359L222.905 40.9346ZM217.778 40.6306C217.98 40.7162 218.158 40.8449 218.303 41.0043L218.271 40.3743L217.292 40.4251L217.778 40.6306ZM221.071 32.2182C221.506 32.1956 221.929 32.362 222.23 32.6753C222.532 32.9886 222.682 33.4177 222.643 33.8508C222.633 33.9627 222.618 34.1887 222.607 34.4394C222.597 34.6976 222.594 34.933 222.602 35.0822L222.63 35.6215L226.425 35.4245L226.503 36.9225L221.209 37.1972L221.104 35.1599C221.081 34.7206 221.124 33.998 221.149 33.7162L219.292 33.8125C219.368 34.1092 219.483 34.804 219.505 35.2233L219.612 37.2801L214.06 37.5682L213.982 36.0703L218.036 35.8599L218.007 35.301C218 35.1663 217.975 34.9454 217.937 34.7033C217.899 34.4599 217.859 34.2648 217.838 34.1823C217.727 33.7468 217.818 33.2846 218.084 32.9228C218.351 32.5609 218.766 32.3378 219.214 32.3145L221.071 32.2182Z" fill="#421F0C"/>
<path d="M197.003 34.228C197.424 34.2062 197.835 34.3623 198.135 34.6583C198.435 34.9543 198.597 35.363 198.58 35.7841C198.569 36.0851 198.528 36.5827 198.553 37.0714C198.611 38.19 198.682 39.8483 198.683 41.4906C198.683 43.0928 198.619 44.8186 198.364 46.0044C198.363 46.009 198.361 46.0136 198.36 46.0183C197.804 48.4894 196.468 50.7603 194.645 52.447C194.16 52.8959 193.437 52.9741 192.867 52.64L191.298 51.7201C190.87 51.4693 190.593 51.0231 190.559 50.5283C190.525 50.0335 190.739 49.5537 191.128 49.247C192.471 48.191 193.394 46.6544 193.822 44.964C193.824 44.9567 193.826 44.9494 193.828 44.9422C194.022 44.2231 194.103 42.9456 194.099 41.4331C194.096 39.9693 194.018 38.4522 193.96 37.3294C193.933 36.8205 193.882 36.5084 193.805 36.2442C193.675 35.8039 193.754 35.3283 194.019 34.954C194.285 34.5796 194.708 34.3472 195.166 34.3234L197.003 34.228ZM202.308 36.8766C202.269 36.1176 202.318 35.5343 202.33 35.3734L200.492 35.4688C200.501 35.6286 200.629 36.1831 200.668 36.9421L201.289 48.9055C201.31 49.305 201.272 49.7276 201.208 50.0313L202.312 50.8551C202.466 50.747 202.657 50.5564 202.988 50.379C205.104 49.1802 207.566 47.1894 209.197 44.9454L209.512 44.4939L208.482 43.1646C207.081 45.5002 204.719 47.4453 202.905 48.3806L202.308 36.8766ZM195.244 35.8214C195.365 36.2355 195.428 36.6727 195.458 37.2516C195.574 39.4886 195.781 43.4638 195.277 45.3324L195.176 45.6995C194.64 47.5283 193.589 49.2199 192.056 50.4261L193.626 51.346C195.231 49.8608 196.409 47.8565 196.897 45.6884C197.332 43.6629 197.17 39.3661 197.055 37.1492C197.025 36.57 197.073 35.9468 197.081 35.726L195.244 35.8214ZM204.267 45.6765C205.36 44.7872 206.444 43.6457 207.195 42.3934C207.45 41.9687 207.898 41.6968 208.393 41.6673C208.887 41.6378 209.364 41.8543 209.667 42.2455L210.698 43.5738C211.093 44.0831 211.118 44.7883 210.761 45.3248C208.984 47.9927 206.136 50.3199 203.728 51.6842C203.717 51.6901 203.707 51.6959 203.696 51.7015C203.625 51.7398 203.565 51.7817 203.498 51.8331C203.459 51.8629 203.428 51.8883 203.374 51.9314C203.33 51.9668 203.255 52.027 203.172 52.0846C202.642 52.4555 201.933 52.4444 201.415 52.0575L200.311 51.2337C199.842 50.8838 199.619 50.2927 199.741 49.7203C199.777 49.5464 199.805 49.2546 199.791 48.9832L199.17 37.0198C199.154 36.7055 199.12 36.4283 199.086 36.2038C199.068 36.0868 199.053 35.9957 199.037 35.8973C199.027 35.8374 199.001 35.6843 198.994 35.5465C198.951 34.7192 199.587 34.0137 200.415 33.9708L202.252 33.8754C202.682 33.8532 203.101 34.016 203.402 34.3233C203.703 34.6307 203.857 35.0535 203.826 35.4826C203.814 35.6395 203.772 36.1416 203.806 36.7988L204.267 45.6765Z" fill="#421F0C"/>
<path d="M177.435 37.9703C177.848 37.8464 178.295 37.9069 178.661 38.1355C179.027 38.3641 179.276 38.7391 179.346 39.1648C179.385 39.4009 179.469 39.6344 179.64 40.2282C179.715 40.4545 179.827 40.7897 179.965 41.2038C182.385 40.6154 184.834 40.0114 185.384 39.8557C185.563 39.8044 185.739 39.7295 185.801 39.6943L185.986 39.6054C186.428 39.4298 186.932 39.4728 187.341 39.7307L188.397 40.3976C189.023 40.7931 189.267 41.5867 188.971 42.2659C188.151 44.1418 186.148 47.2075 184.724 48.7407C184.286 49.2125 183.596 49.3522 183.009 49.0879L182.53 48.8722C182.857 49.8364 183.117 50.5914 183.241 50.9319L183.49 51.6113C183.571 51.8306 183.648 52.031 183.714 52.1776C183.889 52.5664 183.889 53.011 183.717 53.4008C183.544 53.7906 183.213 54.0881 182.808 54.2195L181.114 54.769C180.692 54.9055 180.232 54.8475 179.856 54.6123C179.48 54.377 179.228 53.988 179.166 53.5489C179.117 53.1978 179.016 52.7796 178.88 52.3923C178.593 51.5674 177.747 48.9689 176.939 46.5016C175.673 46.8266 174.666 47.0871 174.275 47.1914C173.502 47.397 172.703 46.96 172.46 46.1982L171.982 44.7014C171.849 44.285 171.904 43.8308 172.133 43.4585C172.362 43.0863 172.742 42.8321 173.174 42.763C173.717 42.6761 174.161 42.5993 174.686 42.4654L174.743 42.4518C174.876 42.4233 175.152 42.3558 175.534 42.266C175.438 41.9874 175.361 41.7629 175.304 41.6081C175.301 41.5999 175.298 41.5914 175.295 41.5831C175.155 41.1832 175.02 40.9034 174.903 40.7175C174.652 40.3211 174.6 39.8303 174.765 39.3909C174.929 38.9513 175.29 38.6136 175.739 38.4788L177.435 37.9703ZM176.171 39.9154C176.367 40.2256 176.547 40.617 176.712 41.0891C176.853 41.4717 177.133 42.3037 177.479 43.3473C176.275 43.6361 175.344 43.8574 175.056 43.9189C174.463 44.0699 173.967 44.1559 173.411 44.2449L173.889 45.7416C174.416 45.6015 176.047 45.182 177.925 44.701C178.852 47.5195 179.986 51.0052 180.297 51.8983C180.462 52.3702 180.588 52.8846 180.652 53.3418L182.346 52.7933C182.188 52.441 181.976 51.8308 181.836 51.4576C181.524 50.6078 180.366 47.1456 179.423 44.3172C182.162 43.6173 184.951 42.9093 185.412 42.8006C184.794 44.0142 183.373 45.9502 182.189 47.073L183.624 47.7202C184.933 46.3105 186.844 43.3867 187.596 41.6654L186.541 40.9995C186.346 41.1097 186.051 41.2249 185.794 41.2983C185.122 41.4889 181.775 42.3096 178.978 42.9859C178.634 41.953 178.355 41.1143 178.213 40.6904C178.067 40.1775 177.925 39.7642 177.866 39.4069L176.171 39.9154ZM181.355 45.3728C181.39 45.4762 181.424 45.5797 181.459 45.6832C181.591 45.5458 181.724 45.3974 181.86 45.2439C181.693 45.2862 181.525 45.3294 181.355 45.3728Z" fill="#421F0C"/>
<path d="M167.448 39.968C167.982 39.9357 168.493 40.1905 168.789 40.6367L169.854 42.2438C170.168 42.7183 170.187 43.3298 169.903 43.8225C168.173 46.8155 165.377 49.6986 162.109 51.8535L162.106 51.8556C159.985 53.2473 157.117 54.3668 155.18 54.8729C154.556 55.0359 153.897 54.7807 153.545 54.24L152.521 52.6708C152.254 52.2596 152.204 51.7429 152.388 51.2882C152.573 50.8334 152.969 50.4978 153.447 50.3893C155.485 49.9275 157.753 49.0587 159.565 47.9205C162.577 45.9813 164.88 43.4252 166.198 40.7937L166.298 40.6222C166.557 40.2409 166.98 39.9965 167.448 39.968ZM167.539 41.4653C166.087 44.3644 163.586 47.1176 160.369 49.1871L159.994 49.4169C158.088 50.5458 155.82 51.3899 153.779 51.8526L154.802 53.4208C156.506 52.9756 158.993 52.0147 160.908 50.8391L161.283 50.6016C164.188 48.686 166.675 46.1761 168.292 43.5903L168.603 43.0725L167.539 41.4653ZM152.057 41.1824C152.478 40.6036 153.258 40.3977 153.916 40.7114C155.169 41.3088 157.639 42.6559 158.597 43.2739C159.272 43.7093 159.485 44.5995 159.079 45.2927L158.233 46.7379C158.025 47.093 157.681 47.3479 157.28 47.4416C156.88 47.5352 156.458 47.46 156.115 47.2341C155.153 46.6014 152.989 45.3729 151.815 44.8326C151.43 44.6553 151.138 44.3229 151.011 43.918C150.884 43.5132 150.934 43.0734 151.15 42.708L151.978 41.3038L152.057 41.1824ZM152.442 43.4702C153.693 44.0461 155.922 45.3125 156.938 45.9807L157.785 44.5346C156.893 43.9599 154.482 42.6429 153.271 42.065L152.442 43.4702ZM154.813 36.5441C155.235 35.9517 156.032 35.7428 156.697 36.0708C157.983 36.7048 160.414 38.1576 161.353 38.7686C162.035 39.2129 162.239 40.121 161.811 40.814L160.943 42.2203C160.727 42.5702 160.377 42.8169 159.974 42.9013C159.572 42.9856 159.152 42.9011 158.813 42.6672C157.879 42.0213 155.688 40.7308 154.552 40.1601C154.183 39.975 153.907 39.6461 153.789 39.2512C153.67 38.8561 153.719 38.4291 153.925 38.0716L154.733 36.6675L154.813 36.5441ZM155.225 38.8197C156.418 39.4187 158.669 40.7436 159.666 41.4329L160.535 40.0266C159.623 39.433 157.246 38.0135 156.033 37.4156L155.225 38.8197Z" fill="#421F0C"/>
<path d="M141.591 46.2287C143.326 44.9456 144.957 43.3986 145.911 42.2671L144.611 41.1327C143.638 42.4449 141.886 44.1986 140.067 45.4345C138.481 46.5182 135.618 48.0688 133.015 48.8447L133.871 50.2817C136.078 49.4738 138.351 48.3034 139.984 47.3056L140.302 53.4331L140.318 53.9154C140.325 54.4188 140.311 54.9487 140.293 55.1752L142.15 55.0788C142.078 54.8569 142.025 54.3306 141.989 53.8286L141.96 53.3471L141.591 46.2287ZM143.458 53.2693C143.473 53.5557 143.496 53.8896 143.524 54.1792C143.538 54.3246 143.553 54.4474 143.567 54.5408C143.576 54.5959 143.582 54.6264 143.584 54.6377L143.577 54.6185C143.72 55.0619 143.65 55.5463 143.385 55.93C143.121 56.3138 142.693 56.5526 142.228 56.5768L140.371 56.6732C139.939 56.6956 139.518 56.5308 139.217 56.2206C138.916 55.9105 138.763 55.4852 138.797 55.0543C138.816 54.8266 138.833 54.0525 138.804 53.5108L138.612 49.799C137.296 50.4855 135.831 51.1616 134.386 51.6905C133.708 51.9384 132.95 51.6687 132.582 51.0488L131.726 49.6117C131.489 49.2144 131.449 48.73 131.617 48.2992C131.786 47.8684 132.143 47.5391 132.586 47.407C135.006 46.6858 137.73 45.215 139.222 44.1955L139.224 44.1934C140.902 43.0533 142.531 41.4178 143.406 40.2389C143.655 39.903 144.034 39.687 144.45 39.642C144.866 39.5971 145.282 39.7271 145.597 40.002L146.898 41.1363C147.514 41.6742 147.586 42.6074 147.058 43.2333C146.15 44.3115 144.709 45.7007 143.13 46.9399L143.458 53.2693Z" fill="#421F0C"/>
<path d="M113.59 39.3943C114.055 39.4388 114.784 39.4565 115.374 39.4259L115.452 40.9239L114.936 40.9399C114.407 40.9467 113.855 40.927 113.447 40.8881L113.539 42.665C113.913 42.6305 114.387 42.5804 114.938 42.5396L115.513 42.5029L125.74 41.9721C125.559 43.904 124.784 46.7276 123.461 48.6187C121.894 50.8429 119.745 52.6575 115.92 53.8173L117.356 55.2448C120.952 53.9167 123.232 51.935 124.929 49.5038C126.42 47.3636 127.212 44.0983 127.542 41.9783C127.601 41.5749 127.664 41.251 127.79 40.9641L126.531 40.2491C126.156 40.3487 125.757 40.389 125.458 40.4046L125.38 38.9066C125.627 38.8938 125.911 38.8618 126.147 38.7993L126.29 38.7684C126.626 38.7136 126.973 38.7745 127.272 38.9443L128.532 39.6603C129.199 40.0396 129.471 40.8614 129.164 41.5646C129.125 41.6539 129.083 41.8059 129.026 42.1966L129.024 42.2095C128.697 44.3078 127.906 47.7069 126.315 50.13L126.159 50.3621C124.296 53.0323 121.772 55.2121 117.876 56.6514C117.328 56.8536 116.713 56.7194 116.299 56.3079L114.863 54.8804C114.488 54.5082 114.338 53.967 114.465 53.4547C114.593 52.9424 114.98 52.5351 115.485 52.3819C118.989 51.3195 120.86 49.7073 122.235 47.7553C123.028 46.6204 123.618 45.0253 123.956 43.5668L115.591 44.0009C114.832 44.0403 114.205 44.1102 113.676 44.1589C113.27 44.1963 112.865 44.0666 112.557 43.7994C112.248 43.5323 112.062 43.1503 112.041 42.7427L111.949 40.9658C111.927 40.5303 112.094 40.1063 112.409 39.8047C112.724 39.503 113.155 39.3528 113.59 39.3943ZM125.38 38.9066L125.458 40.4046L115.452 40.9239L115.374 39.4259L125.38 38.9066Z" fill="#421F0C"/>
<path d="M101.555 54.6477C100.873 54.653 100.06 54.6195 99.3349 54.537L99.5614 56.1876C100.313 56.1937 101.165 56.1942 101.974 56.1719L102.764 56.1417C103.962 56.0794 104.571 55.4869 104.496 54.4295C104.353 51.9264 104.083 47.9719 103.878 44.9693L107.041 44.8052C107.54 44.7793 108.222 44.7835 108.702 44.7786L108.614 43.0807C108.218 43.1614 107.442 43.2618 106.922 43.2888L106.845 41.7908C107.293 41.7675 107.995 41.6759 108.315 41.6108C108.743 41.5238 109.187 41.6276 109.532 41.8948C109.877 42.1622 110.089 42.5669 110.112 43.003L110.2 44.7009C110.221 45.1089 110.075 45.5076 109.795 45.8054C109.515 46.1032 109.126 46.2747 108.717 46.2789C108.191 46.2842 107.577 46.2794 107.119 46.3032L105.478 46.3883C105.663 49.1124 105.873 52.2392 105.993 54.3235L106.003 54.6417C105.993 55.3858 105.758 56.1394 105.159 56.7283C104.51 57.3672 103.646 57.5979 102.841 57.6397C101.775 57.6951 100.555 57.6955 99.5493 57.6873C98.8041 57.6813 98.1759 57.1293 98.0748 56.3909L97.8493 54.7402C97.7867 54.2816 97.939 53.8197 98.2626 53.4886C98.5862 53.1575 99.0449 52.9943 99.505 53.0467C100.098 53.1141 100.763 53.1426 101.342 53.145C101.301 52.4118 101.25 51.5186 101.192 50.5536C99.4235 52.4641 97.1775 54.4042 94.858 55.7951C94.2614 56.1529 93.4973 56.054 93.012 55.5555L91.8056 54.3166C91.4803 53.9823 91.3296 53.5154 91.3968 53.0538C91.464 52.5924 91.7418 52.1883 92.1488 51.9607C94.6842 50.5431 96.9614 48.5665 98.5737 46.7466L95.1555 46.924C94.5331 46.9563 94.0266 47.0179 93.3747 47.0927C92.9635 47.1398 92.5512 47.0154 92.2352 46.748C91.9191 46.4805 91.7279 46.0937 91.7065 45.6802L91.6184 43.9833C91.5964 43.5592 91.7549 43.1453 92.0551 42.8449C92.3553 42.5445 92.7691 42.3856 93.1931 42.4074C93.7331 42.435 94.342 42.4397 94.8812 42.4117L94.9589 43.9097L94.5002 43.9266C94.0342 43.9367 93.5531 43.9279 93.1164 43.9055L93.2045 45.6025C93.682 45.5477 94.1147 45.496 94.5875 45.4583L95.0777 45.4261L101.678 45.0835C100.216 47.5824 96.8214 51.067 92.8807 53.2702L94.0872 54.5091C97.5717 52.4195 100.882 49.0092 102.439 46.5676C102.617 49.2382 102.798 52.1887 102.881 53.7926L102.882 53.9823C102.861 54.3951 102.673 54.6042 102.184 54.6297L101.555 54.6477ZM103.582 38.3557C104.018 38.3331 104.442 38.5008 104.743 38.8156C105.045 39.1307 105.195 39.5619 105.154 39.9961C105.12 40.3465 105.108 40.7086 105.12 41.0501L105.141 41.3835L105.144 41.4253C105.152 41.5582 105.163 41.7095 105.174 41.8775L106.845 41.7908L106.922 43.2888L103.776 43.4521L103.646 41.5158C103.598 40.9778 103.608 40.3968 103.66 39.8537L101.822 39.949C101.924 40.3641 101.989 40.8412 102.068 41.5977C102.113 42.0575 102.166 42.7303 102.226 43.5325L94.9589 43.9097L94.8812 42.4117L100.608 42.1145C100.596 41.9832 100.587 41.8627 100.576 41.7543C100.497 40.9999 100.44 40.6123 100.365 40.3053C100.259 39.8711 100.352 39.4118 100.619 39.0531C100.886 38.6947 101.299 38.4742 101.745 38.451L103.582 38.3557Z" fill="#421F0C"/>
<path d="M69.6531 57.9961L68.2174 58.0706C68.0008 58.0833 67.7979 58.1808 67.6526 58.342C67.5073 58.5032 67.4314 58.7151 67.4411 58.9319L67.5264 60.5751C67.5365 60.7684 67.4693 60.9579 67.3396 61.1017C67.21 61.2455 67.0285 61.3319 66.8352 61.342L53.2129 62.0489C53.1172 62.0539 53.0214 62.04 52.931 62.0079C52.8407 61.9759 52.7575 61.9264 52.6863 61.8622C52.6151 61.798 52.5572 61.7204 52.516 61.6338C52.4747 61.5473 52.451 61.4535 52.446 61.3577L52.3607 59.7145C52.348 59.4979 52.2505 59.295 52.0893 59.1497C51.9281 59.0044 51.7162 58.9284 51.4994 58.9382L50.0637 59.0127C49.8858 59.0219 49.7086 58.9842 49.5499 58.9033C49.3912 58.8225 49.2565 58.7014 49.1593 58.5521C49.0622 58.4028 49.006 58.2305 48.9963 58.0527C48.9867 57.8748 49.0239 57.6975 49.1044 57.5386L58.0265 40.0538C58.1078 39.8956 58.2292 39.7614 58.3786 39.6648C58.528 39.5681 58.7002 39.5124 58.8779 39.5032C59.0556 39.4939 59.2327 39.5315 59.3913 39.6122C59.5499 39.6928 59.6846 39.8137 59.7818 39.9627L70.4604 56.4302C70.5589 56.58 70.6159 56.7533 70.6254 56.9324C70.6349 57.1114 70.5966 57.2897 70.5144 57.4491C70.4323 57.6085 70.3092 57.7431 70.1578 57.8392C70.0065 57.9353 69.8323 57.9895 69.6531 57.9961Z" fill="#F7CA02"/>
<path d="M58.9172 40.2523C58.8708 40.2547 58.8254 40.2691 58.7864 40.2943C58.7472 40.3196 58.7152 40.3554 58.6939 40.3969L49.7726 57.8798C49.7523 57.9209 49.7427 57.9665 49.7452 58.0123C49.7478 58.0589 49.7628 58.1039 49.7882 58.143C49.8136 58.1821 49.8491 58.2143 49.8908 58.2355C49.9323 58.2565 49.9788 58.2661 50.0252 58.2637L51.4657 58.189C51.8794 58.1703 52.2841 58.3158 52.5917 58.5931C52.8991 58.8703 53.0849 59.2579 53.1092 59.6712L53.1936 61.2989L66.776 60.594L66.6915 58.9663C66.6728 58.5526 66.8184 58.1479 67.0956 57.8403C67.3728 57.5327 67.7602 57.3461 68.1737 57.3219L69.6258 57.2465C69.6719 57.2448 69.7168 57.2312 69.7558 57.2065C69.7947 57.1818 69.8262 57.1468 69.8473 57.1059C69.8685 57.0648 69.879 57.0185 69.8766 56.9724C69.8741 56.9262 69.8591 56.8812 69.8337 56.8426L69.8315 56.8388L59.1522 40.3711L59.1521 40.3702C59.1268 40.3323 59.0923 40.3012 59.0516 40.2805C59.0101 40.2594 58.9636 40.2499 58.9172 40.2523ZM68.275 60.5367C68.2952 60.9284 68.1597 61.3122 67.8972 61.6037C67.6344 61.8952 67.2661 62.0706 66.8742 62.0909L53.2519 62.7979C53.0579 62.808 52.8636 62.7801 52.6804 62.7151C52.4973 62.6501 52.3283 62.5493 52.1839 62.4191C52.0398 62.2892 51.9227 62.1321 51.8392 61.9569C51.7557 61.7815 51.7068 61.5911 51.6967 61.3971L51.6117 59.7587L51.6044 59.7307C51.6002 59.722 51.5948 59.7138 51.5875 59.7072C51.5801 59.7005 51.5714 59.6951 51.5623 59.6918L51.5337 59.6875L50.102 59.7618C49.793 59.7777 49.4848 59.7119 49.2091 59.5715C48.9335 59.431 48.6998 59.2206 48.5311 58.9612C48.3623 58.7019 48.2643 58.4028 48.2475 58.0939C48.2307 57.7849 48.2951 57.4763 48.4348 57.2002L48.4366 57.1981L57.3588 39.7132L57.3597 39.7112C57.5009 39.4363 57.7115 39.2029 57.971 39.0351C58.2306 38.8671 58.5305 38.7703 58.8394 38.7543C59.1482 38.7383 59.4558 38.8036 59.7313 38.9437C59.9726 39.0664 60.1819 39.2428 60.3438 39.4585L60.4103 39.5529L60.4113 39.5548L71.0866 56.0178C71.2582 56.2787 71.3579 56.5809 71.3745 56.8927C71.391 57.2046 71.3237 57.515 71.1806 57.7926C71.0375 58.0702 70.8234 58.3048 70.5597 58.4722C70.2993 58.6376 70 58.7308 69.6918 58.7441L69.6919 58.7451L68.2612 58.8193C68.2415 58.8206 68.2229 58.8298 68.2097 58.8445C68.1965 58.8592 68.1891 58.8786 68.19 58.8983L68.275 60.5367Z" fill="#421F0C"/>
<path d="M58.2001 50.6615L55.7774 50.7872C55.5916 50.7969 55.4487 50.9553 55.4584 51.1412L55.5841 53.5639C55.5938 53.7498 55.7522 53.8926 55.9381 53.8829L58.3608 53.7572C58.5467 53.7476 58.6895 53.5891 58.6798 53.4033L58.5541 50.9805C58.5445 50.7947 58.386 50.6518 58.2001 50.6615Z" fill="#421F0C"/>
<path d="M63.1074 50.4071L60.6846 50.5328C60.4988 50.5425 60.356 50.7009 60.3656 50.8868L60.4913 53.3095C60.501 53.4954 60.6595 53.6382 60.8453 53.6286L63.268 53.5028C63.4539 53.4932 63.5967 53.3347 63.5871 53.1489L63.4613 50.7261C63.4517 50.5403 63.2932 50.3974 63.1074 50.4071Z" fill="#421F0C"/>
<path d="M58.4553 55.5746L56.0325 55.7003C55.8467 55.71 55.7039 55.8684 55.7135 56.0543L55.8392 58.477C55.8489 58.6628 56.0074 58.8057 56.1932 58.796L58.6159 58.6703C58.8018 58.6607 58.9446 58.5022 58.935 58.3163L58.8092 55.8936C58.7996 55.7078 58.6411 55.5649 58.4553 55.5746Z" fill="#421F0C"/>
<path d="M63.3625 55.3197L60.9398 55.4454C60.7539 55.4551 60.6111 55.6135 60.6207 55.7994L60.7465 58.2221C60.7561 58.408 60.9146 58.5508 61.1004 58.5411L63.5232 58.4154C63.709 58.4058 63.8518 58.2473 63.8422 58.0615L63.7165 55.6387C63.7068 55.4529 63.5483 55.31 63.3625 55.3197Z" fill="#421F0C"/>
</svg>
