<svg width="181" height="80" viewBox="0 0 181 80" fill="none" xmlns="http://www.w3.org/2000/svg">
<path d="M122.44 69.0699V76.3237H145.748V58.1509L122.44 69.0699Z" fill="#421F0C"/>
<path d="M92.1974 50.8823C92.1974 50.8823 86.2464 45.4113 79.5869 49.785C72.9273 54.1587 72.1349 67.6758 84.5625 69.9617C96.9901 72.2476 100.762 63.2031 100.762 63.2031L92.1974 50.8823Z" fill="#F7B39C"/>
<path d="M92.8374 51.7962C92.8374 51.7962 85.3702 48.7483 80.7985 53.1906C76.2267 57.6328 78.3982 66.0069 87.0541 66.4031C95.71 66.7993 99.1617 60.9016 99.1617 60.9016L92.8374 51.7962Z" fill="#F27E5F"/>
<path d="M147.059 16.4107C147.059 16.4107 148.385 6.23843 160.995 8.08238C173.606 9.92633 172.013 28.0458 167.434 32.5947C162.854 37.1437 155.082 36.1759 155.082 36.1759L147.059 16.4107Z" fill="#F7B39C"/>
<path d="M148.057 17.5083C148.057 17.5083 153.794 7.40473 162.229 13.3633C170.664 19.3218 169.613 32.9609 153.802 32.999C137.991 33.0371 148.057 17.5083 148.057 17.5083Z" fill="#F27E5F"/>
<path d="M92.6775 55.8959C99.68 68.8492 122.341 73.6344 139.035 64.2775C155.73 54.9206 160.805 30.5378 152.453 19.9999C144.102 9.46192 127.857 7.17605 112.207 17.1654C96.5559 27.1547 85.8199 43.2245 92.6775 55.8959Z" fill="#421F0C"/>
<path d="M147.6 15.3746C146.761 15.2222 129.808 12.2429 115.102 22.1561C97.6682 33.8979 91.3972 48.901 90.8486 50.2801C90.8453 50.3156 90.8453 50.3513 90.8486 50.3868C85.1263 28.5185 83.7623 17.6224 103.04 5.43102C124.108 -7.90332 137.793 6.40628 147.6 15.3746Z" fill="#FECB2F"/>
<path d="M122.44 30.7053C122.44 30.7053 126.25 20.3655 139.34 20.1674C152.431 19.9693 151.661 35.2771 149.474 39.9785C147.287 44.6798 140.925 47.8267 140.925 47.8267L143.508 51.6365C143.508 51.6365 141.824 53.4271 138.342 52.9242C134.86 52.4213 132.581 48.7563 132.581 48.7563C132.581 48.7563 132.978 54.2196 135.629 56.5055C138.281 58.7913 144.377 57.595 144.377 57.595C144.377 57.595 142.853 61.0772 137.519 61.4048C132.185 61.7325 128.871 55.8426 128.871 55.8426C128.871 55.8426 125.594 60.1324 117.639 61.4201C109.684 62.7078 100.449 59.218 99.2532 49.8763C98.0569 40.5347 105.616 31.5893 112.572 30.2939C119.529 28.9986 122.44 30.7053 122.44 30.7053Z" fill="#F7B39C"/>
<path d="M135.584 23.6493C146.64 20.6472 150.716 31.6194 146.8 38.2561C142.883 44.8928 136.384 45.1138 132.018 42.005C127.652 38.8962 126.173 26.2019 135.584 23.6493Z" fill="white"/>
<path d="M110.355 35.4067C119.933 30.2101 126.409 38.9727 126.798 46.4399C127.187 53.9071 120.344 59.8657 111.559 57.7017C102.773 55.5378 100.579 40.71 110.355 35.4067Z" fill="white"/>
<path d="M137.252 29.1814C143.424 28.0842 146.205 37.7307 139.538 39.7118C132.871 41.6929 131.057 30.271 137.252 29.1814Z" fill="#421F0C"/>
<path d="M112.511 40.0622C120.703 38.6145 124.39 51.3926 115.559 54.029C106.728 56.6654 104.328 41.5099 112.511 40.0622Z" fill="#421F0C"/>
<path d="M130.638 48.0932C131.713 47.5294 131.537 48.6418 130.638 49.1904C129.739 49.739 129.793 48.5428 130.638 48.0932Z" fill="#421F0C"/>
<path d="M133.542 46.6074C134.707 46.2874 134.304 47.3694 133.298 47.6741C132.292 47.9789 132.62 46.8588 133.542 46.6074Z" fill="#421F0C"/>
<path d="M147.584 15.3745C146.746 15.2221 129.793 12.2428 115.087 22.156C97.6531 33.8978 91.3821 48.9009 90.8335 50.28C91.3364 48.5809 98.2856 26.202 113.098 17.9804C128.154 9.62933 146.746 15.1154 147.584 15.3745Z" fill="#D8AA2A"/>
<path d="M95.8091 23.8858C95.8091 23.8858 97.2187 21.257 97.8892 20.9141C98.5598 20.5712 100.503 25.6307 100.282 26.3089C100.061 26.987 99.977 27.5737 99.1617 27.4975C98.3464 27.4213 95.8091 25.044 95.8091 23.8858Z" fill="#D8AA2A"/>
<path d="M94.4833 31.8634C94.436 31.7044 94.4212 31.5375 94.4395 31.3726C94.4578 31.2077 94.509 31.0481 94.59 30.9033C94.7805 30.5833 95.0243 30.3396 95.192 30.3091C95.714 30.4685 96.1674 30.7985 96.4796 31.2463C96.533 31.4977 95.5119 33.6388 95.1995 33.5322C94.8871 33.4255 94.6281 32.4501 94.4833 31.8634Z" fill="#D8AA2A"/>
<path d="M90.9325 32.092C90.8852 32.0434 90.8546 31.981 90.845 31.9139C90.8354 31.8468 90.8474 31.7785 90.8792 31.7186C91.1307 31.2462 91.3288 30.8042 91.6412 30.8042C91.9536 30.8042 92.3346 32.8386 92.1822 33.0901C92.0298 33.3415 91.2678 32.4577 90.9325 32.092Z" fill="#D8AA2A"/>
<path d="M90.5669 37.6316C90.5669 37.6316 90.9326 36.542 91.1079 36.4658C91.7501 36.7385 92.3326 37.1346 92.8223 37.6316C92.7209 38.2628 92.4376 38.8507 92.007 39.3232C91.7556 39.3994 90.5898 37.9821 90.5669 37.6316Z" fill="#D8AA2A"/>
<path d="M147.584 15.3745C160.804 37.86 152.751 51.9487 145.657 59.2102C145.657 59.2102 154.549 54.2575 156.408 41.8832C158.267 29.5089 149.802 17.1271 149.802 17.1271C149.102 16.4948 148.361 15.9093 147.584 15.3745Z" fill="#1DBA8F"/>
<path d="M91.2373 49.3276C91.2373 49.3276 99.3674 70.9445 129.991 67.8661C113.052 69.1539 98.9331 61.58 91.824 48.0933C91.6031 48.5428 91.3897 48.9771 91.2373 49.3276Z" fill="#1DBA8F"/>
<path d="M135.165 64.5973C135.132 64.5169 135.13 64.4272 135.16 64.3455C135.189 64.2639 135.248 64.1961 135.325 64.1553C136.513 63.5305 141.329 61.0084 141.695 60.9399C142.06 60.8713 142.617 62.0599 142.457 62.6161C142.297 63.1724 138.212 65.4659 136.871 65.8088C135.881 66.0679 135.363 65.1078 135.165 64.5973Z" fill="#1DBA8F"/>
<path d="M126.021 76.3241C126.021 76.3241 127.057 71.9505 134.09 71.1504C141.123 70.3503 141.923 76.3241 141.923 76.3241H126.021Z" fill="#F7B39C"/>
<path d="M180.509 62.9743C179.168 64.5439 152.956 60.3455 152.583 60.4141C152.21 60.4827 149.535 62.5629 148.491 63.2715C148.411 63.3259 148.32 63.361 148.224 63.3741C148.128 63.3871 148.031 63.3778 147.939 63.3468C147.848 63.3158 147.764 63.2639 147.696 63.1953C147.628 63.1267 147.577 63.0432 147.546 62.9514C146.937 61.0008 146.442 55.6518 146.785 55.2251C147.127 54.7984 152.118 56.749 152.118 56.749C152.118 56.749 174.558 40.8621 176.341 40.6106C178.124 40.3592 181.85 61.4123 180.509 62.9743Z" fill="#FECB2F"/>
<path d="M180.509 62.9744C178.985 62.3039 175.442 46.0588 176.333 40.5727C178.124 40.3136 181.85 61.4124 180.509 62.9744Z" fill="#D8AA2A"/>
<path d="M153.627 62.464C153.627 62.464 152.629 58.9513 153.376 58.997C154.122 59.0427 155.098 60.7191 155.098 60.7191L160.332 61.481C159.411 62.6674 158.416 63.7948 157.353 64.8566C156.21 65.8776 145.748 72.7962 145.748 72.7962V67.2339L153.627 62.464Z" fill="#421F0C"/>
<path d="M111.574 79.5088C116.397 79.0364 117.342 76.1257 116.298 75.3333C115.254 74.5408 108.679 74.1522 107.681 76.0952C106.682 78.0382 109.837 79.6764 111.574 79.5088Z" fill="#421F0C"/>
<path d="M74.139 76.324C74.139 76.324 64.2335 50.0668 35.1798 48.6343C6.12621 47.2019 0.761962 72.4456 0 76.324H3.37553C3.37553 76.324 6.60624 50.3564 34.9817 51.9412C59.4331 53.3356 68.9728 76.324 68.9728 76.324H74.139Z" fill="#421F0C"/>
<path d="M42.929 76.324C42.929 76.324 39.1573 65.7404 33.6407 64.1326C28.1241 62.5249 22.4551 67.5462 23.499 69.1921C24.5429 70.8379 30.1357 67.2034 33.1531 68.2016C36.1704 69.1998 38.563 76.3622 38.563 76.3622L42.929 76.324Z" fill="#421F0C"/>
</svg>
