<svg width="67" height="64" viewBox="0 0 67 64" fill="none" xmlns="http://www.w3.org/2000/svg">
<path d="M28.3162 58.0178C21.1203 57.6188 12.6444 55.3553 2.70527 50.6213L1.38341 49.982C1.17394 49.8787 1.00478 49.7088 0.902588 49.4988C0.800396 49.2888 0.770999 49.0508 0.819015 48.8223L1.00843 47.8611C1.04554 47.6853 1.13448 47.5247 1.26376 47.3999C1.39304 47.2752 1.55673 47.192 1.73372 47.1612C2.09975 47.107 2.64088 47.0287 3.28533 46.9178C9.62325 45.8731 28.3418 42.2698 38.7001 34.7577C51.3029 25.6174 61.6178 13.5123 61.6178 13.5123C61.5825 13.7009 61.6136 13.8959 61.7058 14.0641C62.2492 14.973 64.8265 14.1446 64.8265 14.1446C64.8158 14.7798 64.7973 15.4252 64.7669 16.0712C63.9383 35.6256 54.8247 59.4885 28.3162 58.0178Z" fill="#FECB2F"/>
<path d="M28.3162 58.0178C44.0841 56.3029 61.4792 44.0659 64.7727 16.087C63.9384 35.6256 54.8247 59.4885 28.3162 58.0178Z" fill="#EDB824"/>
<path d="M61.723 14.0822C50.3404 44.2878 18.1242 47.936 1.10906 47.6196C1.17329 47.4978 1.26516 47.3927 1.37729 47.3128C1.48942 47.2329 1.61871 47.1804 1.75479 47.1594C2.12082 47.1053 2.66195 47.0269 3.3064 46.916C9.64432 45.8714 28.3629 42.2681 38.7212 34.7559C51.3241 25.6156 61.6389 13.5106 61.6389 13.5106C61.5975 13.705 61.6274 13.9079 61.723 14.0822Z" fill="#FFDA71"/>
<path d="M2.68847 50.6329L1.36661 49.9936C1.15714 49.8904 0.987977 49.7204 0.885786 49.5104C0.783594 49.3005 0.754194 49.0625 0.80221 48.8339L0.991628 47.8727C1.02801 47.6966 1.11671 47.5356 1.24612 47.4107C1.37553 47.2858 1.53962 47.2029 1.71692 47.1728C2.08295 47.1187 2.62408 47.0403 3.26853 46.9294C3.20649 48.1809 3.01206 49.4224 2.68847 50.6329Z" fill="#421F0C"/>
<path d="M64.901 12.2769C64.8463 12.904 64.8272 13.5336 64.8436 14.1628C64.8436 14.1628 61.3963 15.2632 61.6349 13.5305C61.6349 13.5305 61.6 12.9774 61.5009 12.8991C61.4018 12.8208 60.0695 12.8755 60.047 12.1251C60.0246 11.3747 65.5078 10.6433 65.7974 10.9323C66.087 11.2214 64.9829 11.8614 64.901 12.2769Z" fill="#421F0C"/>
<path d="M11.3846 52.6138C9.27561 52.1982 7.07737 51.7092 4.78981 51.1468L4.9937 50.306C23.8678 54.9446 36.2596 54.5497 45.1866 49.0256C53.6633 43.774 59.1778 33.6891 63.0663 16.3265L63.91 16.5163C59.9645 34.1232 54.3313 44.3785 45.6407 49.7612C37.5972 54.7369 26.8738 55.6662 11.3846 52.6138Z" fill="#EDB824"/>
</svg>
